<?xml version="1.0" encoding="UTF-8"?>
<!DOCTYPE svg PUBLIC "-//W3C//DTD SVG 1.1//EN" "http://www.w3.org/Graphics/SVG/1.1/DTD/svg11.dtd">
<!-- Creator: CorelDRAW -->
<svg xmlns="http://www.w3.org/2000/svg" xml:space="preserve" width="236.089mm" height="357.003mm" style="shape-rendering: geometricprecision; text-rendering: geometricprecision; fill-rule: evenodd; clip-rule: evenodd;" viewBox="0 0 236.089 357.003">
 <defs>
  <style type="text/css">
   <![CDATA[
    .fil0 {fill:#1F1A17}
    .fil1 {fill:white}
   ]]>
  </style>
 </defs>
 <g id="Layer_x0020_1">
  <metadata id="CorelCorpID_0Corel-Layer"/>
  <g id="_27690416">
   <path id="_163687864" class="fil0" d="M105.564 2.8765c-0.532,0 -1.4652,-0.0896 -2.128,0 -0.6628,0.0896 -1.2582,0.3368 -1.8088,0.532 -0.5506,0.1952 -1.1172,0.3406 -1.4896,0.6384 -1.3499,1.0795 0.0986,2.142 0.5887,3.1766 0.1692,0.3574 -0.2103,0.7337 -0.3759,0.973 -0.1656,0.2393 -0.5851,0.5673 -0.8512,0.8512 -0.2661,0.2839 -0.5451,0.4517 -0.7448,0.8512 -0.1997,0.3995 -0.2306,0.8158 -0.4256,1.4896 -0.195,0.6738 -0.4943,1.9273 -0.7448,2.5536 -0.2505,0.6263 -0.4406,0.8125 -0.7448,1.1704 -0.3042,0.3579 -0.6206,0.5319 -1.064,0.9576 -0.4434,0.4257 -1.2485,1.0654 -1.596,1.596 -0.3475,0.5306 -0.4442,0.9681 -0.4256,1.4896 0.0186,0.5215 0.3537,1.0973 0.532,1.4896 0.1783,0.3923 0.4233,0.5795 0.532,0.8512 0.1087,0.2717 0.1994,0.41 0.1064,0.7448 -0.093,0.3348 -0.4076,0.7975 -0.6384,1.1704 -0.2308,0.3729 -0.4959,0.6373 -0.7448,1.064 -0.2489,0.4267 -0.4077,0.8863 -0.7448,1.4896 -0.3371,0.6033 -1.0265,1.6273 -1.2768,2.128 -0.2503,0.5007 -0.2313,0.5541 -0.2128,0.8512 0.0185,0.2971 0.1338,0.6102 0.3192,0.8512 0.1854,0.241 0.4059,0.3536 0.7448,0.532 0.3389,0.1784 1.0479,0.2114 1.2768,0.532 0.0161,0.0225 -0.0936,1.9098 -0.1586,3.4287 -0.0328,0.7676 -0.4916,1.7624 -0.4558,2.2997 0.0358,0.5373 0.1108,0.7281 0.4822,1.1387 0.3714,0.4106 1.1428,0.4402 1.409,0.9001 0.2662,0.4599 -0.3363,0.5475 -0.532,1.1704 -0.1957,0.6229 -0.6203,1.6977 -0.6384,2.5536 -0.0181,0.8559 0.1087,1.6741 0.532,2.4472 0.4233,0.7731 1.2286,1.5949 1.9152,2.0216 0.6866,0.4267 1.3954,0.372 2.0216,0.4256 0.6262,0.0536 0.9931,-0.0532 1.7024,-0.1064 0.7093,-0.0532 1.7024,-0.1418 2.5536,-0.2128l2.128 -0.1064c-0.3192,0.6384 -0.5138,1.1517 -0.9576,1.9152 -0.4438,0.7635 -1.0714,1.9568 -1.7024,2.66 -0.631,0.7032 -1.2939,1.2284 -2.0216,1.4896 -0.7277,0.2612 -1.2395,0.071 -2.128,0 -0.8885,-0.071 -2.0416,-0.0482 -3.192,-0.4256 -1.1504,-0.3774 -2.4117,-1.2058 -3.6176,-1.8088 -1.0285,-0.7093 -1.9839,-1.4706 -3.0856,-2.128 -1.1017,-0.6574 -2.3221,-1.2586 -3.5112,-1.8088 -1.1891,-0.5502 -2.2865,-1.0104 -3.6176,-1.4896 -1.3311,-0.4792 -3.0065,-1.0978 -4.3624,-1.3832 -1.3559,-0.2854 -2.4275,-0.2837 -3.724,-0.3192 -1.2965,-0.0355 -2.5673,-0.0536 -4.0432,0.1064 -1.4759,0.16 -3.3694,0.603 -4.788,0.8512 -1.4186,0.2482 -2.6761,0.4075 -3.724,0.6384 -1.0479,0.2309 -1.8341,0.6369 -2.5536,0.7448 -0.7195,0.1079 -1.0755,0.1517 -1.7024,-0.1064 -0.6269,-0.2581 -1.135,-0.8158 -1.9152,-1.3832 -0.7802,-0.5674 -1.8226,-1.4518 -2.7664,-2.0216 -0.9438,-0.5698 -1.8394,-1.0091 -2.8728,-1.3832 -1.0334,-0.3741 -2.083,-0.7082 -3.2984,-0.8512 -1.2154,-0.143 -2.8516,-0.0711 -3.9368,0 -1.0852,0.0711 -1.8796,0.3015 -2.5536,0.4256 -0.674,0.1241 -1.1071,0.301 -1.4896,0.3192 -0.3825,0.0182 -0.5592,0.1584 -0.7448,-0.2128 -0.1856,-0.3712 -0.2485,-0.9684 -0.2128,-1.7024 0.0357,-0.734 0.266,-1.6847 0.4256,-2.66 0.1596,-0.9753 0.3547,-2.128 0.532,-3.192 0.0355,-1.064 0.1599,-2.2997 0.1064,-3.192 -0.0535,-0.8923 -0.3368,-1.506 -0.4256,-2.128 -0.0888,-0.622 -0.1598,-0.8473 -0.1064,-1.596 0.0534,-0.7487 0.1566,-1.9762 0.4256,-2.8728 0.269,-0.8966 0.6559,-1.4714 1.1704,-2.4472 0.5145,-0.9758 1.3655,-2.4472 1.9152,-3.4048 0.5497,-0.9576 0.9007,-1.6974 1.3832,-2.3408 0.4825,-0.6434 0.8413,-1.2539 1.4896,-1.4896 0.6483,-0.2357 1.2916,-0.0792 2.0216,0.2128 0.73,0.292 1.4896,0.9753 2.2344,1.4896 0.7448,0.5143 1.4531,1.2508 2.2344,1.596 0.7813,0.3452 1.814,-0.0354 2.3408,0.4256 0.5268,0.461 -0.4337,1.0292 0.2128,1.8088 0.6465,0.7796 2.2912,1.9429 3.4048,2.5536 1.1136,0.6107 2.1954,0.8149 3.192,1.064 0.9966,0.2491 1.862,0.4618 2.7664,0.4256 0.9044,-0.0362 1.7272,-0.2792 2.5536,-0.6384 0.8264,-0.3592 1.6401,-0.8607 2.3408,-1.4896 0.7007,-0.6289 1.4395,-1.3665 1.8088,-2.2344 0.3693,-0.8679 0.2482,-1.6659 0.3192,-2.7664 0.071,-1.1005 0.1064,-2.7127 0.1064,-3.8304 0,-1.1177 0.0373,-2.0639 -0.1064,-2.8728 -0.1437,-0.8089 -0.4767,-1.3968 -0.7448,-1.9152 -0.2681,-0.5184 -0.4737,-0.9518 -0.8512,-1.1704 -0.3775,-0.2186 -0.8653,-0.0359 -1.1704,0 -0.3051,0.0359 -0.2526,0.5174 -0.6384,0.2128 -0.3858,-0.3046 -0.934,-1.3596 -1.3832,-1.8088 -0.4492,-0.4492 -0.7951,-0.703 -1.2768,-0.8512 -0.4817,-0.1482 -0.9742,-0.0355 -1.4896,0 -0.5154,0.0355 -1.0915,0.2308 -1.596,0.2128 -0.5045,-0.018 -0.6014,-0.0527 -1.3832,-0.3192 -0.7818,-0.2665 -2.2875,-0.9044 -3.2984,-1.2768 -1.0109,-0.3724 -1.7891,-0.6911 -2.7664,-0.9576 -0.9773,-0.2665 -1.9487,-0.4786 -3.0856,-0.6384 -1.1369,-0.1598 -2.4993,-0.266 -3.724,-0.3192 -1.2247,-0.0532 -2.4117,-0.0177 -3.6176,0 -1.2059,0.0177 -2.4578,-0.0541 -3.6176,0.1064 -1.1598,0.1605 -2.1989,0.5675 -3.2984,0.8512 -0.5674,0.3902 -1.2181,0.722 -1.7024,1.1704 -0.4843,0.4484 -0.7958,0.8652 -1.1704,1.4896 -0.3746,0.6244 -0.8322,1.6282 -1.064,2.2344 -0.2318,0.6062 0.0121,0.8678 -0.3192,1.3832 -0.3313,0.5154 -0.7803,0.798 -1.596,1.596 -0.8157,0.798 -2.0742,1.9146 -3.2984,3.192 -1.2242,1.2774 -2.5177,2.8724 -4.0432,4.4688 -1.5255,1.5964 -3.3685,3.2443 -5.1072,5.1072 -1.7387,1.8629 -3.5806,3.8994 -5.32,6.0648 -1.7394,2.1654 -3.9119,4.9713 -5.1072,6.916 -1.1953,1.9447 -1.4717,3.3335 -2.0216,4.6816 -0.5499,1.3481 -0.992,2.4254 -1.2768,3.4048 -0.2848,0.9794 -0.3015,1.6491 -0.4256,2.4472 -0.1241,0.7981 -0.0318,1.4783 -0.3192,2.3408 -0.2874,0.8625 -1.0961,1.9408 -1.3832,2.7664 -0.2871,0.8256 -0.3741,1.4687 -0.3192,2.128 0.0549,0.6593 0.2823,1.2526 0.6384,1.7024 0.3561,0.4498 0.796,0.5665 1.3832,0.8512 0.5872,0.2847 1.4187,0.5675 2.128,0.8512 0.2838,0.3902 0.6364,0.7765 0.8512,1.1704 0.2148,0.3939 0.1678,0.8205 0.4256,1.1704 0.2578,0.3499 0.3871,0.4593 1.064,0.8512 0.6769,0.3919 1.9499,1.0282 2.9792,1.4896 1.0293,0.4614 1.9149,0.727 3.192,1.2768 1.2771,0.5498 2.6385,1.0087 4.4688,2.0216 1.8303,1.0129 4.7525,2.9792 6.4904,4.0432 1.7379,1.064 2.3746,1.5242 3.9368,2.3408 1.5622,0.8166 3.5069,1.8072 5.4264,2.5536 1.9195,0.7464 4.0229,1.3826 6.0648,1.9152 2.0419,0.5326 4.1082,1.0101 6.1712,1.2768 2.063,0.2667 4.3176,0.3904 6.1712,0.3192 1.8536,-0.0712 3.7062,-0.5498 4.8944,-0.7448 1.1882,-0.195 1.6698,-0.484 2.2344,-0.4256 0.5646,0.0584 0.6106,-0.1805 0.8512,0.7448 0.2406,0.9253 0.3547,2.6064 0.532,4.5752 0.1773,1.9688 0.1764,4.8523 0.532,7.2352 0.3556,2.3829 0.8852,4.6412 1.596,7.0224 1.1492,3.8501 2.4858,7.8797 5.0008,11.0656 1.335,1.6911 4.0409,4.6438 5.6392,6.2776 1.5983,1.6338 2.8638,2.2951 3.9368,3.5112 1.073,1.2161 1.6474,2.2844 2.4472,3.724 0.7998,1.4396 1.525,3.2628 2.3408,4.8944 0.8158,1.6316 1.7733,3.3515 2.5536,4.8944 0.7803,1.5429 1.4187,2.8728 2.128,4.3624 0.7093,1.4896 1.5943,3.1697 2.128,4.5752 0.9999,2.6332 1.9555,5.2354 2.9792,7.8736 0.4627,1.1924 0.7775,2.3484 0.8512,3.0856 0.0737,0.7372 -0.0505,0.5453 -0.4256,1.1704 -0.3751,0.6251 -1.4421,1.5819 -1.8088,2.5536 -0.3667,0.9717 -0.2306,2.0747 -0.3192,3.0856 -0.0886,1.0109 0.1305,1.8588 -0.2128,2.9792 -0.3433,1.1204 -1.2236,2.4117 -1.8088,3.6176 -0.5852,1.2059 -1.3272,2.5455 -1.7024,3.6176 -0.3752,1.0721 -0.3369,1.5425 -0.532,2.7664 -0.1951,1.2239 -0.39,3.1908 -0.6384,4.5752 -0.4909,2.7359 -1.3726,5.3153 -2.128,7.98 -0.3369,1.1883 -0.3014,1.3651 -0.7448,2.8728 -0.4434,1.5077 -1.259,4.1848 -1.9152,6.1712 -0.6562,1.9864 -1.383,4.0603 -2.0216,5.7456 -0.6386,1.6853 -1.1704,2.8019 -1.8088,4.3624 -0.6384,1.5605 -1.5071,3.6168 -2.0216,5.0008 -0.5145,1.384 -0.6735,1.7896 -1.064,3.2984 -0.3905,1.5088 -0.9041,3.6336 -1.2768,5.7456 -0.3727,2.112 -0.6384,4.6107 -0.9576,6.916 0.0355,1.9862 -0.0178,4.1116 0.1064,5.9584 0.1242,1.8468 0.3889,3.8419 0.6384,5.1072 0.2495,1.2653 0.5849,1.524 0.8512,2.4472 0.2663,0.9232 0.6552,1.9917 0.7448,3.0856 0.0896,1.0939 0.036,1.8052 -0.2128,3.4048 -0.2488,1.5996 -0.9931,4.6634 -1.2768,6.1712 -0.2837,1.5078 -0.3545,2.055 -0.4256,2.8728 -0.0711,0.8178 0.0355,1.4174 0,2.0216 -0.0355,0.6042 -0.0699,1.0599 -0.2128,1.596 -0.1429,0.5361 -0.2596,1.0368 -0.6384,1.596 -0.3788,0.5592 -1.1346,1.1699 -1.596,1.7024 -0.4614,0.5325 -0.6914,0.9219 -1.1704,1.4896 -0.479,0.5677 -1.2047,1.2753 -1.7024,1.9152 -0.4977,0.6399 -0.7448,1.1526 -1.2768,1.9152 -0.532,0.7626 -1.3986,1.7871 -1.9152,2.66 -0.5166,0.8729 -0.7978,1.6486 -1.1704,2.5536 -0.3726,0.905 -0.7093,1.9152 -1.064,2.8728 -0.2128,1.135 -0.4611,2.305 -0.6384,3.4048 -0.1773,1.0998 -0.3545,2.1079 -0.4256,3.192 -0.0711,1.0841 -0.0177,2.1279 0,3.2984 0.0398,2.6352 0.1665,5.2499 0.4256,7.8736 0.4455,4.5114 1.1508,9.001 1.596,13.5128 0.142,1.4386 0.1064,2.163 0.1064,3.5112 0,1.3482 0,2.9072 -0.1064,4.5752 -0.1064,1.668 -0.2656,3.7209 -0.532,5.4264 -0.2664,1.7055 -0.6019,3.2238 -1.064,4.788 -0.4621,1.5642 -1.0416,3.2537 -1.7024,4.5752 -0.6608,1.3215 -0.9257,2.0076 -2.2344,3.2984 -1.3087,1.2908 -3.7234,2.8545 -5.5328,4.3624 -1.8094,1.5079 -4.0072,3.4753 -5.32,4.6816 -1.3128,1.2063 -1.7911,1.7733 -2.5536,2.5536 -0.7625,0.7803 -1.4313,1.305 -2.0216,2.128 -2.1453,2.9904 -2.7832,5.2606 0.2943,8.4908 1.3628,1.4304 2.3841,2.9765 4.2595,4.1531 4.0268,2.5264 5.6115,2.5424 9.8102,0.4433 1.8831,-0.9414 2.939,-0.8819 4.5752,-2.5536 0.8195,-0.8373 1.9151,-2.2698 2.66,-3.192 0.7449,-0.9222 1.0614,-1.54 1.8088,-2.3408 0.7474,-0.8008 1.7366,-1.6836 2.66,-2.4472 2.8516,-2.3581 3.4633,-3.5776 5.5328,-6.7032 0.8707,-1.315 2.0376,-2.0454 2.5536,-3.2984 0.516,-1.253 0.3723,-2.8168 0.4256,-3.9368 0.0533,-1.12 0.0357,-1.5935 -0.1064,-2.7664 -0.1421,-1.1729 -0.6203,-1.7761 -0.7448,-4.256 -0.1245,-2.4799 0.3203,-5.555 1.4896,-8.9376 0.4967,-1.4372 0.8504,-2.4277 1.4896,-3.8304 0.6392,-1.4027 1.5596,-3.2081 2.3408,-4.5752 0.7812,-1.3671 1.5068,-2.4287 2.3408,-3.6176 0.834,-1.1889 1.7555,-2.2698 2.66,-3.5112 0.9045,-1.2414 1.9328,-2.6952 2.7664,-3.9368 0.8336,-1.2416 1.6299,-2.4089 2.2344,-3.5112 0.6045,-1.1023 1.0445,-2.0693 1.3832,-3.0856 0.3387,-1.0163 0.5315,-1.8737 0.6384,-2.9792 0.1069,-1.1055 0,-2.3763 0,-3.6176 0,-1.2413 -0.0354,-2.5709 0,-3.8304 0.0354,-1.2595 0.0885,-2.6224 0.2128,-3.724 0.1243,-1.1016 0.337,-1.862 0.532,-2.8728 0.195,-1.0108 0.3896,-2.25 0.6384,-3.192 0.2488,-0.942 0.4773,-1.6282 0.8512,-2.4472 0.3739,-0.819 0.9044,-1.6314 1.3832,-2.4472 0.4788,-0.8158 0.939,-1.648 1.4896,-2.4472 0.5506,-0.7992 1.2228,-1.4885 1.8088,-2.3408 0.586,-0.8523 1.0639,-1.6667 1.7024,-2.7664 0.6385,-1.0997 1.5941,-2.6735 2.128,-3.8304 0.5339,-1.1569 0.7446,-2.0387 1.064,-3.0856 0.3194,-1.0469 0.514,-2.1095 0.8512,-3.192 0.3372,-1.0825 0.7436,-2.3202 1.1704,-3.2984 0.4268,-0.9782 0.8335,-1.5782 1.3832,-2.5536 0.5497,-0.9754 1.2563,-2.3545 1.9152,-3.2984 0.6589,-0.9439 1.1704,-1.33 2.0216,-2.3408 0.8512,-1.0108 2.1812,-2.6423 3.0856,-3.724 0.9044,-1.0817 1.6315,-1.9152 2.3408,-2.7664 0.7093,-0.8512 1.2934,-1.4702 1.9152,-2.3408 0.6218,-0.8706 1.3297,-2.0566 1.8088,-2.8728 0.4791,-0.8162 0.7094,-1.3477 1.064,-2.0216l1.064 -1.4896 0.6384 0.4256c0.4256,1.2768 0.8156,2.2871 1.2768,3.8304 0.4612,1.5433 1.2219,3.9269 1.4896,5.4264 0.2677,1.4995 -0.0181,2.3901 0.1064,3.5112 0.1245,1.1211 0.4079,2.0393 0.6384,3.192 0.2305,1.1527 0.4604,2.6572 0.7448,3.724 0.2844,1.0668 0.6913,1.7901 0.9576,2.66 0.2663,0.8699 0.6384,1.7276 0.6384,2.5536 0,0.826 -0.3546,1.0279 -0.6384,2.2344 -0.2838,1.2065 -0.8684,3.7737 -1.064,5.0008 -0.1956,1.2271 -0.1241,1.5941 -0.1064,2.3408 0.0177,0.7467 0.1419,1.4542 0.2128,2.128 0.0709,0.6738 0.2307,1.2882 0.2128,1.9152 -0.0179,0.627 -0.0146,1.0202 -0.3192,1.8088 -0.3046,0.7886 -0.6381,1.3827 -1.4896,2.8728 -0.8515,1.4901 -2.7472,4.4483 -3.6176,6.0648 -0.8704,1.6165 -0.8512,1.933 -1.596,3.6176 -0.7448,1.6846 -2.109,4.4831 -2.8728,6.4904 -0.7638,2.0073 -1.3635,3.9275 -1.7024,5.5328 -0.3389,1.6053 -0.4797,2.0443 -0.3192,4.0432 0.1605,1.9989 0.9577,5.8165 1.2768,7.8736 0.3191,2.0571 0.5141,2.7988 0.6384,4.4688 0.1243,1.67 0.2849,3.694 0.1064,5.5328 -0.1785,1.8388 -0.6732,3.6149 -1.1704,5.4264 -1.0001,3.6439 -2.3311,7.4025 -3.6176,10.9592 -0.6033,1.6678 -1.3831,3.3691 -1.8088,4.4688 -0.4257,1.0997 -0.3724,1.1172 -0.7448,2.128 -0.3724,1.0108 -1.2037,2.9182 -1.4896,3.9368 -0.3762,1.3404 -0.1955,2.7823 -0.1064,4.1496 0.0532,0.8157 0.1061,2.1077 0.2128,2.8728 0.1067,0.7651 0.1721,1.1772 0.4256,1.7024 0.2535,0.5252 0.5783,0.9515 1.064,1.3832 0.4857,0.4317 0.8819,0.8978 1.8088,1.1704 0.9269,0.2726 2.3047,0.3192 3.6176,0.4256 1.3129,0.1064 2.8187,0.0886 4.256,0.2128 1.4373,0.1242 2.8797,0.1569 4.3624,0.532 1.4827,0.3751 3.0921,0.9694 4.4688,1.7024 1.3767,0.733 2.908,2.0569 3.724,2.66 0.816,0.6031 0.6639,0.7044 1.1704,0.9576 0.5065,0.2532 1.1499,0.4074 1.8088,0.532 0.6589,0.1246 1.4364,0.1419 2.128,0.2128 0.6916,0.0709 1.483,0.0872 2.0216,0.2128 0.5386,0.1256 0.6737,0.2837 1.1704,0.532 0.4967,0.2483 1.1479,0.7075 1.8088,0.9576 0.6609,0.2501 1.3549,0.4781 2.128,0.532 0.7731,0.0539 1.5605,-0.1241 2.4472,-0.2128 0.8867,-0.0887 2.0557,-0.065 2.8728,-0.3192 0.8171,-0.2542 0.984,-0.501 1.5172,-0.8743 0.5332,-0.3733 0.7927,-0.9461 1.3627,-1.1851 0.57,-0.239 1.2573,-0.3291 1.6517,-0.8352 1.3849,-1.7773 1.1686,-3.778 0.399,-5.8663 -0.3437,-0.9328 -1.6487,-1.7546 -2.909,-2.1983 -1.2603,-0.4437 -3.1913,-1.0284 -4.4688,-1.3832 -1.2775,-0.3548 -2.3072,-0.284 -3.192,-0.7448 -0.8848,-0.4608 -1.2768,-1.2945 -1.9152,-1.9152 -0.6384,-0.6207 -1.0961,-1.1855 -1.9152,-1.8088 -0.8191,-0.6233 -1.9506,-1.2768 -2.9792,-1.9152 -1.0286,-0.6384 -2.181,-1.2767 -3.192,-1.9152 -1.011,-0.6385 -1.9328,-1.259 -2.8728,-1.9152 -0.94,-0.6562 -2.1608,-1.5229 -2.7664,-2.0216 -0.6056,-0.4987 -0.6499,-0.5551 -0.8512,-0.9576 -0.2013,-0.4025 -0.3192,-0.8405 -0.3192,-1.3832 0,-0.5427 0.0707,-0.8147 0.3192,-1.8088 0.2485,-0.9941 0.5306,-2.4433 1.1704,-4.1496 0.6398,-1.7063 1.5064,-3.7399 2.66,-6.0648 1.1536,-2.3249 2.6771,-5.1592 4.256,-7.8736 2.6208,-4.5057 5.5469,-8.0276 8.512,-12.1296 1.0683,-1.4779 2.3507,-3.4044 3.0856,-5.1072 0.7349,-1.7028 0.9395,-3.3317 1.2768,-5.0008 0.3373,-1.6691 0.5675,-3.4037 0.7448,-5.0008 0.1773,-1.5971 0.2483,-3.4758 0.3192,-4.5752 0.0709,-1.0994 0.0532,-1.259 0.1064,-2.0216 0.0532,-0.7626 -0.0769,-1.6482 0.2128,-2.5536 0.2897,-0.9054 0.8484,-1.8223 1.4896,-2.7664 0.6412,-0.9441 1.7189,-2.0199 2.3408,-2.8728 0.6219,-0.8529 0.9206,-1.2914 1.3832,-2.2344 0.4626,-0.943 1.0266,-2.0846 1.3832,-3.4048 0.3566,-1.3202 0.5851,-3.0659 0.7448,-4.4688 0.1597,-1.4029 0.0705,-2.7981 0.2128,-3.9368 0.1423,-1.1387 0.4079,-1.8975 0.6384,-2.8728 0.2305,-0.9753 0.3316,-2.0269 0.7448,-2.9792 0.4132,-0.9523 1.0636,-1.5599 1.7024,-2.66 0.6388,-1.1001 1.2927,-2.6216 2.128,-3.9368 0.8353,-1.3152 2.0925,-2.8728 2.8728,-3.9368 0.7803,-1.064 1.1703,-1.5427 1.8088,-2.4472 0.6385,-0.9045 1.4184,-2.021 2.0216,-2.9792 0.6032,-0.9582 1.1853,-1.82 1.596,-2.7664 0.4107,-0.9464 0.6206,-2.0035 0.8512,-2.8728 0.2306,-0.8693 0.4252,-1.3433 0.532,-2.3408 0.1068,-0.9975 0.1241,-2.4283 0.1064,-3.6176 -0.0177,-1.1893 -0.1419,-1.8264 -0.2128,-3.5112 -0.0709,-1.6848 -0.1596,-4.9299 -0.2128,-6.5968 -0.0762,-2.3894 -0.3015,-4.3533 -0.7448,-6.7032 -0.3313,-1.7562 -0.4887,-3.2023 -0.4256,-5.0008 0.0355,-1.0112 0.1596,-2.2698 0.2128,-3.4048 0.0532,-1.135 0.1419,-1.9493 0.1064,-3.4048 -0.0355,-1.4555 -0.1419,-3.3332 -0.3192,-5.32 -0.1773,-1.9868 -0.2998,-4.4073 -0.7448,-6.5968 -0.445,-2.1895 -1.1859,-4.5514 -1.9152,-6.4904 -0.7293,-1.939 -1.7904,-3.8468 -2.4472,-5.1072 -1.2301,-2.3605 -1.255,-2.7245 -1.7024,-5.32 -0.178,-1.0325 -0.4771,-2.2649 -0.8512,-3.2984 -0.3741,-1.0335 -0.9036,-2.0024 -1.3832,-2.8728 -0.4796,-0.8704 -1.0438,-1.7524 -1.4896,-2.3408 -1.0335,-1.3642 -1.262,-1.7065 -1.9152,-3.4048 -0.785,-2.0412 -1.064,-2.5754 -1.064,-4.788l-0.532 -2.7664c-0.461,-1.064 -1.0279,-2.2326 -1.3832,-3.192 -0.3553,-0.9594 -0.5844,-1.6443 -0.7448,-2.5536 -0.1604,-0.9093 -0.2128,-1.7002 -0.2128,-2.8728 0,-1.1726 0.0885,-2.9593 0.2128,-4.1496 0.1977,-1.894 0.4548,-4.6959 1.4896,-6.2776 1.2595,-1.9251 4.6785,-6.0259 6.4904,-8.0864 1.8119,-2.0605 2.8727,-2.7663 4.3624,-4.256 1.4897,-1.4897 3.3108,-3.15 4.5752,-4.6816 1.2644,-1.5316 2.3491,-3.1725 2.9792,-4.4688 0.6301,-1.2963 0.4966,-2.128 0.7448,-3.192l-0.2128 -3.4048 -0.2128 -2.2344 0.7448 -0.1064c1.064,0.4611 2.128,0.9222 3.192,1.3832 1.4542,0.4966 3.1008,1.1343 4.3624,1.4896 2.7446,0.7728 6.5083,1.1784 8.7248,1.2768 2.2165,0.0984 2.66,-0.1241 4.0432,-0.2128 1.3832,-0.0887 2.8542,-0.1595 4.256,-0.3192 1.4018,-0.1597 2.7067,-0.2645 4.1496,-0.6384 1.4429,-0.3739 2.9969,-1.064 4.4688,-1.596 1.4719,-0.532 3.1667,-1.025 4.3624,-1.596 1.1957,-0.571 2.0926,-1.3655 2.7664,-1.8088 1.6658,-1.0959 1.9209,-0.6777 3.9368,-0.7448 1.066,-0.0355 2.5306,-0.1055 3.724,-0.3192 1.1934,-0.2137 2.3926,-0.6203 3.4048,-0.9576 1.0122,-0.3373 1.7369,-0.6379 2.66,-1.064 0.9231,-0.4261 1.9473,-0.9023 2.8728,-1.4896 0.9255,-0.5873 2.0641,-1.4257 2.66,-2.0216 0.5959,-0.5959 0.7045,-0.9576 0.8512,-1.4896 0.1467,-0.532 0.0534,-1.044 0,-1.596 -0.0534,-0.552 -0.2305,-0.9388 -0.3192,-1.7024 -0.0887,-0.7636 -0.1064,-1.9146 -0.2128,-2.8728 -0.1064,-0.9582 -0.3723,-1.4853 -0.4256,-2.8728 -0.0533,-1.3875 0.071,-3.8127 0.1064,-5.4264 0.0354,-1.6137 0.1241,-2.978 0.1064,-4.256 -0.0177,-1.278 -0.0167,-2.2461 -0.2128,-3.4048 -0.1961,-1.1587 -0.5122,-2.353 -0.9576,-3.5112 -0.4454,-1.1582 -1.1165,-2.3573 -1.7024,-3.4048 -0.5859,-1.0475 -1.2058,-1.9152 -1.8088,-2.8728 -0.993,-1.525 -2.2666,-3.2747 -2.9792,-4.5752 -0.7126,-1.3005 -0.7448,-1.8443 -1.2768,-3.192 -0.532,-1.3477 -1.33,-3.3337 -1.9152,-4.8944 -0.5852,-1.5607 -1.135,-3.1566 -1.596,-4.4688 -0.461,-1.3122 -0.8859,-2.3557 -1.1704,-3.4048 -0.2845,-1.0491 -0.3546,-2.0214 -0.532,-2.8728 -0.1774,-0.8514 -0.0511,-1.5996 -0.532,-2.2344 -0.4809,-0.6348 -1.4268,-0.9892 -2.128,-1.2768 -0.7012,-0.2876 -1.4334,-0.3543 -2.0216,-0.4256 -0.5882,-0.0713 -0.9099,0.1449 -1.4896,0 -0.5797,-0.1449 -0.8864,-0.4432 -1.9152,-0.8512 -1.0288,-0.408 -3.2273,-1.2236 -4.256,-1.596 -1.0287,-0.3724 -1.2971,-0.5658 -1.9152,-0.6384 -0.6181,-0.0726 -1.1417,0.3249 -1.7024,0.2128 -0.5607,-0.1121 -0.9377,-0.6019 -1.4896,-0.8512 -0.5519,-0.2493 -1.2076,-0.5656 -1.8088,-0.6384 -0.6012,-0.0728 -1.0732,0.2487 -1.7024,0.2128 -0.6292,-0.0359 -1.3647,-0.3191 -2.0216,-0.4256 -0.6569,-0.1065 -1.4262,-0.2308 -1.9152,-0.2128 -0.489,0.018 -0.5989,0.1219 -0.9576,0.3192 -0.3587,0.1973 -0.5602,0.8119 -1.1704,0.8512 -0.6102,0.0393 -1.5396,-0.5137 -2.128,-0.6384 -0.5884,-0.1247 -0.9601,-0.18 -1.3832,-0.1064 -0.4231,0.0736 -0.7019,0.2243 -1.064,0.532 -0.3621,0.3077 -0.7939,0.8085 -1.064,1.2768 -0.2701,0.4683 -0.3546,0.9397 -0.532,1.4896 -0.1774,0.5499 -0.3369,1.2057 -0.532,1.8088 -0.1951,0.6031 -0.353,1.2201 -0.6384,1.8088 -0.2854,0.5887 -0.7956,1.1118 -1.064,1.7024 -0.2684,0.5906 -0.4775,1.2992 -0.532,1.8088 -0.0545,0.5096 0.0115,0.7677 0.2128,1.1704 0.2013,0.4027 0.7084,0.8144 0.9576,1.1704 0.2492,0.356 0.2658,0.5317 0.532,0.9576 0.2662,0.4259 0.6638,1.1958 1.064,1.596 0.4002,0.4002 0.9355,0.4754 1.2768,0.7448 0.3413,0.2694 0.1686,0.6976 0.7448,0.8512 0.5762,0.1536 1.8533,-0.2757 2.4472,0 0.5939,0.2757 0.2042,1.0361 0.532,1.3832 0.3278,0.3471 0.7493,0.4593 1.2768,0.532 0.5275,0.0727 1.2762,0.0589 1.8088,-0.1064 0.5326,-0.1653 0.7172,-0.6346 1.2768,-0.8512 0.5596,-0.2166 1.1507,-0.319 2.0216,-0.4256 0.8709,-0.1066 2.4114,-0.1773 3.192,-0.2128 0.7806,-0.0355 1.0322,0.1097 1.4896,0 0.4574,-0.1097 0.796,-0.478 1.1704,-0.6384 0.3744,-0.1604 0.5779,-0.4553 1.064,-0.3192 0.4861,0.1361 1.1671,0.4674 1.596,1.064 0.4289,0.5966 0.5498,1.4719 0.8512,2.3408 0.3014,0.8689 0.8668,1.7471 0.9576,2.8728 0.0908,1.1257 -0.1589,2.3726 -0.4256,3.724 -0.2667,1.3514 -0.727,2.8547 -1.1704,4.3624 -0.4434,1.5077 -1.1167,3.2786 -1.4896,4.6816 -0.3729,1.403 -0.5498,2.642 -0.7448,3.724 -0.195,1.082 -0.2837,1.8443 -0.4256,2.7664l0 1.7024c-0.993,-0.532 -1.8957,-1.0987 -2.9792,-1.596 -1.0835,-0.4973 -2.304,-0.9749 -3.5112,-1.3832 -1.2072,-0.4083 -2.4169,-0.8851 -3.724,-1.064 -1.3071,-0.1789 -2.7962,-0.3117 -4.0432,0 -1.247,0.3117 -2.1268,1.1342 -3.192,1.8088 -1.0652,0.6746 -2.0253,1.9284 -3.192,2.2344 -1.1667,0.306 -1.6295,-0.1414 -3.2984,-0.532 -1.6689,-0.3906 -4.5927,-1.2058 -6.7032,-1.8088 -2.1105,-0.603 -4.158,-1.4345 -5.9584,-1.8088 -1.8004,-0.3743 -3.3125,-0.3901 -4.788,-0.4256 -1.4755,-0.0355 -2.4063,-0.0362 -4.0432,0.2128 -1.6369,0.249 -4.0599,0.9574 -5.7456,1.2768 -1.6857,0.3194 -3.1496,0.5671 -4.3624,0.6384 -1.2128,0.0713 -1.9152,-0.1418 -2.8728,-0.2128 -1.064,-0.461 -2.0656,-0.6859 -3.192,-1.3832 -1.1264,-0.6973 -2.3939,-1.862 -3.5112,-2.7664 -1.0766,-0.8715 -4.1857,-2.7161 -4.3624,-4.1496 -0.1667,-1.3523 0.0692,-4.9848 0.2128,-6.2776 0.1436,-1.2928 0.3012,-0.7444 0.6384,-1.3832 0.3372,-0.6388 0.5511,-1.5789 1.3832,-2.4472 0.8321,-0.8683 2.6953,-2.0215 3.5112,-2.66 0.8159,-0.6385 1.0746,-0.8073 1.3832,-1.1704 0.3086,-0.3631 0.3357,-0.5257 0.4256,-0.9576 0.0899,-0.4319 -0.0399,-1.1203 0.1064,-1.596 0.1463,-0.4757 0.4256,-0.6739 0.7448,-1.1704 0.3192,-0.4965 0.8484,-1.1111 1.1704,-1.8088 0.322,-0.6977 0.5668,-1.5217 0.7448,-2.3408 0.178,-0.8191 0.3014,-1.8391 0.3192,-2.5536 0.0178,-0.7145 -0.2128,-1.2182 -0.2128,-1.7024 0,-0.4842 0.068,-0.8082 0.2128,-1.1704 0.1448,-0.3622 0.5275,-0.4953 0.6384,-0.9576 0.1109,-0.4623 0.1073,-1.0228 0,-1.7024 -0.1073,-0.6796 -0.3854,-1.7623 -0.6384,-2.3408 -0.253,-0.5785 -0.5494,-0.6379 -0.8512,-1.064 -0.3018,-0.4261 -0.603,-0.9576 -0.9576,-1.4896 -0.3546,-0.532 -0.865,-1.0376 -1.1704,-1.7024 -0.3054,-0.6648 -0.2448,-1.3934 -0.6384,-2.2344 -0.3936,-0.841 -1.0408,-1.9439 -1.7024,-2.7664 -0.6616,-0.8225 -1.5606,-1.4719 -2.2344,-2.128 -0.6738,-0.6561 -0.9866,-1.2011 -1.8088,-1.8088 -0.8222,-0.6077 -1.7677,-1.2211 -3.0856,-1.8088 -1.3179,-0.5877 -3.4186,-1.3111 -4.788,-1.7024 -1.3694,-0.3913 -2.2152,-0.4787 -3.4048,-0.6384 -1.1896,-0.1597 -2.4644,-0.2484 -3.724,-0.3192 -1.2596,-0.0708 -2.3754,-0.1241 -3.8304,-0.1064 -1.455,0.0177 -3.5983,0.1063 -4.8944,0.2128 -1.2961,0.1065 -2.127,0.2836 -2.8728,0.4256 -0.7458,0.142 -1.1057,0.1714 -1.596,0.4256 -0.4903,0.2542 -0.8864,0.7623 -1.2768,1.064 -0.3904,0.3017 -0.6924,0.6148 -1.064,0.7448 -0.3716,0.13 -0.532,0 -1.064,0z"/>
   <path id="_161611192" class="fil1" d="M57.8283 331.158l-0.4572 0.0762c-0.5588,0.254 -1.0027,0.4586 -1.6764,0.762 -0.6737,0.3034 -1.4454,0.5554 -2.3658,1.0584 -0.9204,0.503 -2.2395,1.2758 -3.1446,1.9533 -0.9051,0.6775 -1.5146,1.3434 -2.262,2.0937 -0.7474,0.7503 -1.5537,1.7393 -2.2196,2.4047 -0.6659,0.6654 -1.1259,1.0068 -1.7718,1.5839 -0.6459,0.5771 -1.1545,1.2928 -1.7602,1.9362 -0.6057,0.6434 -1.1196,1.04 -1.4116,1.5563 -0.292,0.5163 -0.5674,1.2931 -0.53,1.6243 0.0374,0.3312 0.2049,0.636 0.3858,0.8252 0.1809,0.1892 0.3261,0.0765 0.5875,0.0082 0.5613,-0.1468 2.3556,-2.2605 2.5582,-2.0819 -0.3177,0.3075 -0.6321,0.6099 -0.9531,0.9224 -0.321,0.3125 -0.6845,0.6247 -0.9731,0.9529 -0.2886,0.3282 -0.6021,0.6896 -0.7533,1.0109 -0.1512,0.3213 -0.1419,0.5911 -0.1278,0.861 0.0141,0.2699 0.1188,0.5141 0.2106,0.7212 0.0918,0.2071 0.1876,0.381 0.3342,0.5077 0.1466,0.1267 0.3573,0.2003 0.5094,0.2217 0.1521,0.0214 0.1769,-0.0002 0.3522,-0.1007 0.1753,-0.1005 0.4988,-0.3425 0.6866,-0.4952 0.1878,-0.1527 0.2824,-0.2826 0.4381,-0.4192 0.1557,-0.1366 0.3303,-0.2667 0.4954,-0.4001l0.9798 -0.902c-0.3799,0.3979 -1.1334,1.16 -1.4547,1.509 -0.4438,0.4821 -0.8813,0.7729 -0.8779,1.4842 0.002,0.4305 0.247,0.7763 0.4667,1.026 0.2197,0.2497 0.6172,0.545 0.9782,0.5979 0.3841,0.0563 1.3076,-1.1309 1.6467,-1.3765l1.2631 -1.3194c-0.5747,0.5808 -1.3328,1.6157 -1.7376,2.0519 -0.4048,0.4362 -0.5071,0.4819 -0.5794,0.8656 -0.0723,0.3837 0.2695,0.8712 0.4675,1.1167 0.198,0.2455 0.6485,0.6348 0.9732,0.6795 0.3247,0.0447 0.4811,0.038 0.8772,-0.2604 0.3961,-0.2984 0.7214,-0.8194 1.0541,-1.1609 0.3327,-0.3415 1.6675,-1.4983 1.9757,-1.8092l0.7056 -0.8282c-0.2019,0.2166 -0.1185,0.4474 -0.3437,0.6835 -0.8836,0.9264 -2.1705,1.9376 -2.6385,2.516 -0.6532,0.8072 -0.618,1.2612 -0.3156,1.9088 0.3365,0.7208 2.1088,0.9698 2.742,0.9147 0.4952,-0.043 1.3892,-0.2687 1.7841,-0.4955 0.3949,-0.2268 0.5459,-0.328 0.7711,-0.6288 0.2252,-0.3008 0.358,-0.6097 0.4987,-0.9004 0.1407,-0.2907 0.1626,-0.6993 0.3445,-0.8414 0.1819,-0.1421 0.1297,0.239 0.3977,0.2614 0.268,0.0224 0.6331,0.0153 1.1299,-0.1336 0.4968,-0.1489 1.2719,-0.4102 1.8255,-0.7521 0.5536,-0.3419 1.1008,-0.8316 1.4512,-1.2722 0.3504,-0.4406 0.2263,-0.8918 0.6064,-1.3153 0.3801,-0.4235 1.0668,-0.762 1.6002,-1.143l1.7498 -2.066 -1.445 0.3134 -1.2334 0.0484 -1.7284 0.3048 -1.722 -0.0406c-1.1651,-0.1753 -2.3328,0.1828 -3.2719,-0.5067 2.8782,-1.4717 4.6509,-1.0984 9.6321,-2.9301 4.9812,-1.8317 4.0149,-2.1861 5.334,-3.5052 1.3191,-1.3191 1.7392,-2.9704 2.3622,-4.191 0.623,-1.2206 0.9144,-2.0828 1.3716,-3.1242l0.2286 -2.286c-1.3208,0.7366 -2.9314,1.5606 -3.9624,2.2098 -1.4542,0.9157 -1.8536,1.6369 -3.5814,1.8288 0.381,-0.508 0.417,-0.7598 1.143,-1.524 0.726,-0.7642 2.2225,-2.0955 3.2004,-3.048 0.9779,-0.9525 2.1509,-1.0914 2.667,-2.667 0.5161,-1.5756 0.127,-4.5711 0.2286,-6.1722 0.1016,-1.6011 0.0624,-1.9762 0.381,-3.429 0.3186,-1.4528 0.8995,-3.6138 1.524,-5.2578 0.6245,-1.644 1.2317,-2.6793 2.2098,-4.572 0.9781,-1.8927 2.7305,-5.0546 3.6576,-6.7818 1.3848,-2.5799 2.5456,-4.56 4.4958,-6.7818 1.0039,-1.1437 2.61,-2.5954 3.429,-3.6576 0.819,-1.0622 1.0526,-1.7619 1.4478,-2.667 0.3952,-0.9051 0.7223,-1.5775 0.9144,-2.7432 0.1921,-1.1657 0.2286,-2.9314 0.2286,-4.191 0,-1.2596 -0.1651,-2.4003 -0.2286,-3.3528 -0.0635,-0.9525 -0.1143,-1.5366 -0.1524,-2.3622 -0.0381,-0.8256 0.1615,-1.9474 -0.0762,-2.5908 -0.2377,-0.6434 -0.6174,-0.8715 -1.2192,-0.9144 -0.6018,-0.0429 -1.3494,0.2251 -1.9812,0.6858 -0.6318,0.4607 -1.1298,1.2693 -1.6764,1.9812 -0.5466,0.7119 -1.0155,1.5234 -1.6002,2.286 -0.5847,0.7626 -1.3315,1.687 -1.905,2.286 -0.5735,0.599 -1.0412,1.0214 -1.524,1.2954 -0.4828,0.274 -0.8304,0.3868 -1.2954,0.3048 -0.465,-0.082 -0.93,-0.4097 -1.2954,-0.762 -0.3654,-0.3523 -0.5581,-0.7734 -0.8382,-1.2954 -0.2801,-0.522 -0.546,-1.13 -0.8382,-1.8288 -0.2922,-0.6988 -0.6477,-1.6254 -0.9144,-2.3622 -0.2667,-0.7368 -0.4187,-1.3833 -0.6858,-2.0574 -0.2671,-0.6741 -0.6052,-1.4915 -0.9144,-1.9812 -0.3092,-0.4897 -0.5281,-0.8217 -0.9144,-0.9144 -0.3863,-0.0927 -0.6199,0.0335 -0.9906,0.4572 -0.3707,0.4237 -0.7617,1.244 -1.143,1.9812 -0.3813,0.7372 -0.7349,1.1502 -1.143,2.4384 -0.4081,1.2882 -0.9899,3.4753 -1.2954,5.2578 -0.3055,1.7825 -0.3937,3.5429 -0.5334,5.4102 -0.1397,1.8673 -0.3048,3.8074 -0.3048,5.7912 0,1.9838 0.254,3.9491 0.3048,6.096 0.0508,2.1469 0.0508,5.1797 0,6.7818 -0.0508,1.6021 -0.1521,1.9411 -0.3048,2.8194 -0.1527,0.8783 -0.3556,1.4351 -0.6096,2.4384 -0.254,1.0033 -0.6349,2.298 -0.9144,3.5814 -0.2795,1.2834 -0.5841,2.8689 -0.762,4.1148 -0.1779,1.2459 -0.2159,2.3495 -0.3048,3.3528 -0.0889,1.0033 -0.1143,1.6888 -0.2286,2.667 -0.1143,0.9782 -0.3048,2.2604 -0.4572,3.2004 -0.1524,0.94 -0.0723,1.4375 -0.4572,2.4384 -0.3849,1.0009 -1.2573,2.451 -1.8288,3.5052 -0.5715,1.0542 -1.0364,2.0506 -1.6002,2.8194 -0.5638,0.7688 -1.1903,1.3735 -1.7526,1.7526 -0.5623,0.3791 -1.1683,0.4299 -1.524,0.4572 -0.3557,0.0273 -0.3742,0.0826 -0.4572,-0.3048 -0.083,-0.3874 -0.028,-0.5513 0.2286,-1.2954 0.2566,-0.7441 0.5967,-0.9902 0.8382,-1.4478 0.2415,-0.4576 0.4317,-0.876 0.6096,-1.2954 0.1779,-0.4194 0.3048,-0.8128 0.4572,-1.2192l0.2286 -0.8382z"/>
   <path id="_162127248" class="fil1" d="M131.609 348.816c0.2202,0.4561 0.5871,0.7857 0.8989,1.1235 0.3118,0.3378 0.5393,0.6651 0.9671,0.8984 0.4278,0.2333 1.0405,0.3569 1.5348,0.4661 0.4943,0.1092 0.8649,0.1264 1.4211,0.1873 0.5562,0.0609 1.4677,0.1486 1.9154,0.1779 0.4477,0.0293 0.5118,0.0273 0.7687,-0.0017 0.2569,-0.029 0.576,-0.0044 0.764,-0.1718 0.188,-0.1674 0.1534,-0.431 0.211,-0.6964 0.0576,-0.2654 0.0895,-0.5947 0.1342,-0.892l0.4522 -0.876c-0.0703,0.2661 -0.1615,0.4383 -0.2109,0.7983 -0.0494,0.36 -0.1571,0.9787 -0.0846,1.3525 0.0725,0.3738 0.2812,0.5466 0.4995,0.7839 0.2183,0.2373 0.4798,0.4244 0.7918,0.6195 0.312,0.1951 0.7027,0.3995 1.0716,0.5465 0.3689,0.147 0.7312,0.2574 1.1325,0.3326 0.4013,0.0752 0.8023,0.1266 1.2642,0.1167 0.4619,-0.0099 1.0822,-0.1486 1.4924,-0.1757 0.4102,-0.0271 0.6682,0.008 0.9644,0.013 0.2962,0.005 0.539,0.0376 0.8127,0.0171 0.2737,-0.0205 0.5216,-0.0447 0.8227,-0.1399 0.3011,-0.0952 0.6895,-0.2599 0.9709,-0.4272 0.2814,-0.1673 0.5017,-0.3111 0.7028,-0.568 0.2011,-0.2569 0.4155,-0.6495 0.4775,-0.9399 0.062,-0.2904 -0.0233,-0.4906 -0.1232,-0.7171 -0.0999,-0.2265 -0.1869,-0.4002 -0.4599,-0.603 -0.273,-0.2028 -0.7373,-0.4379 -1.1407,-0.5859 -0.4034,-0.148 -0.924,-0.2649 -1.262,-0.2958 -0.338,-0.0309 -0.5074,0.0434 -0.7318,0.1131 -0.2244,0.0697 -0.399,0.2002 -0.5984,0.3004l-0.6691 0.4897 -0.3365 -0.0101c0.2844,-0.3267 0.4054,-0.6767 0.8534,-0.98 0.448,-0.3033 0.92,-0.274 1.6347,-0.2243 0.7147,0.0497 0.8602,0.299 1.2904,0.4486 0.2947,0.1206 0.6166,0.2015 0.8843,0.3618 0.2677,0.1603 0.4984,0.4175 0.7033,0.5891 0.2049,0.1716 0.304,0.333 0.526,0.4406 0.222,0.1076 0.5032,0.2356 0.7718,0.1886 0.2686,-0.047 0.5314,-0.2727 0.7133,-0.4488 0.1819,-0.1761 0.282,-0.368 0.3493,-0.5799 0.0673,-0.2119 0.1567,-0.4545 0.0433,-0.6559 -0.1134,-0.2014 -0.3148,-0.1992 -0.625,-0.3764 -0.3102,-0.1772 -0.8244,-0.458 -1.2366,-0.687l-1.0994 -0.5336c0.1438,0.0521 0.2574,0.0935 0.4315,0.1565 0.1741,0.063 0.3724,0.1236 0.613,0.2214 0.2406,0.0978 0.5347,0.2193 0.8303,0.3651 0.2956,0.1458 0.7317,0.4156 0.9421,0.5091 0.2104,0.0935 0.1859,0.1459 0.3076,0.0462 0.1217,-0.0997 0.2661,-0.3279 0.3097,-0.5519 0.0436,-0.224 -0.0098,-0.5444 -0.0591,-0.7345 -0.0493,-0.1901 -0.0968,-0.2557 -0.2299,-0.3782 -0.1331,-0.1225 -0.3652,-0.2251 -0.5477,-0.3376l-1.0172 -0.4113c0.112,-0.0064 0.2045,-0.0573 0.3361,-0.019 0.1316,0.0383 0.2354,0.1729 0.4225,0.2397 0.1871,0.0668 0.5016,0.1994 0.6885,0.1577 0.1869,-0.0417 0.2561,-0.1484 0.2485,-0.3671 -0.0076,-0.2187 -0.1178,-0.5476 -0.2899,-0.82 -0.1721,-0.2724 -0.4491,-0.547 -0.7219,-0.7814 -0.2728,-0.2344 -0.6413,-0.4886 -0.9046,-0.6161 -0.2633,-0.1275 -0.5114,-0.1073 -0.6469,-0.1357 -0.1355,-0.0284 -0.1152,-0.0165 -0.1665,-0.035 -0.0513,-0.0185 -0.01,-0.0054 -0.1378,-0.0753 -0.1278,-0.0699 -0.3846,-0.2178 -0.6294,-0.3439 -0.2448,-0.1261 -0.4814,-0.2979 -0.839,-0.4127 -0.3576,-0.1148 -0.9091,-0.213 -1.2907,-0.2713 -0.3816,-0.0583 -0.7258,-0.0953 -0.9943,-0.0779 -0.2685,0.0174 -0.4235,0.0788 -0.59,0.1809 -0.1665,0.1021 -0.2611,0.2785 -0.3744,0.4104 -0.1133,0.1319 -0.2034,0.2539 -0.3051,0.3809l-0.4648 0.651c0.0929,-0.2786 0.172,-0.5682 0.2789,-0.8356 0.1069,-0.2674 0.3067,-0.554 0.3615,-0.7662 0.0548,-0.2122 0.0165,-0.3262 -0.0429,-0.4662 -0.0594,-0.14 -0.1006,-0.2136 -0.2959,-0.332 -0.1953,-0.1184 -0.5428,-0.2726 -0.8518,-0.3641 -0.309,-0.0915 -0.697,-0.1316 -0.9912,-0.1819 -0.2942,-0.0503 -0.4454,0.0623 -0.7739,-0.12 -0.3285,-0.1823 -0.7558,-0.6258 -1.1336,-0.9387 -0.4319,-0.5392 -0.9043,-1.2406 -1.2956,-1.6175 -0.4446,-0.4282 -1.304,-1.0342 -1.8184,-1.4127 -0.3988,-0.2933 -0.9699,-0.6939 -1.5249,-1.0872 -0.555,-0.3933 -1.4479,-0.7519 -2.147,-1.1272 -0.6991,-0.3753 -1.335,-0.5377 -2.0995,-0.9856 -1.5464,-0.906 -2.2627,-1.7469 -3.4367,-2.9335 -0.3919,-0.3961 -0.8919,-0.6993 -1.3733,-1.122 -0.4814,-0.4227 -1.1757,-0.9396 -1.5136,-1.4135 -0.3379,-0.4739 -0.4304,-0.7803 -0.4544,-1.3467 -0.024,-0.5664 0.1276,-1.0607 0.314,-1.9553 0.1864,-0.8946 0.3265,-1.9667 0.804,-3.4095 0.4775,-1.4428 1.2218,-3.1793 2.0543,-5.2266 0.8325,-2.0473 1.8461,-4.7432 2.9409,-7.0566 1.0948,-2.3134 2.3133,-4.6422 3.6206,-6.8088 1.3073,-2.1666 3.0838,-4.6007 4.2118,-6.1715 1.128,-1.5708 1.7669,-2.2002 2.5533,-3.2488 0.7864,-1.0486 1.5266,-1.9249 2.1649,-3.0413 0.6383,-1.1164 1.2002,-1.9413 1.6479,-3.6268 0.4477,-1.6855 0.6773,-4.2667 1.016,-6.4001 0.0125,-1.1963 0.025,-2.3926 0.0375,-3.5889l-0.3667 -0.5961c-0.3275,0.9177 -0.7251,2.1063 -0.9824,2.7529 -0.2573,0.6466 -0.3121,0.9229 -0.5593,1.1213 -0.2472,0.1984 -0.429,0.1672 -0.6265,-0.1694 -0.1975,-0.3366 -0.3829,-0.9009 -0.4331,-1.6369 -0.0502,-0.736 0.0583,-1.852 0.1347,-2.7299 0.0764,-0.8779 0.0926,-1.6681 0.3238,-2.534 0.2312,-0.8659 0.4013,-1.5873 1.0526,-2.6194 0.6513,-1.0321 1.6202,-2.0315 2.8156,-3.5105 1.1954,-1.479 3.3805,-3.9391 4.3568,-5.3639 0.9763,-1.4248 1.102,-2.0535 1.4623,-3.1286 0.3603,-1.0751 0.4977,-2.0765 0.6851,-3.279 0.1874,-1.2025 0.3536,-2.6997 0.4384,-3.9284 0.0848,-1.2287 -0.0395,-2.4926 0.0699,-3.4366 0.1094,-0.944 0.3531,-1.4724 0.582,-2.1889 0.2289,-0.7165 0.7193,-1.4947 0.7899,-2.1049 0.0706,-0.6102 0.3319,-1.1062 -0.3856,-1.3848 -0.7175,-0.2786 -2.2124,-0.1937 -3.1808,0 -0.9684,0.1937 -1.6803,0.4341 -2.4992,1.136 -0.8189,0.7019 -1.6488,1.9393 -2.272,2.9536 -0.6232,1.0143 -1.1377,1.9441 -1.4449,3.0963 -0.3072,1.1522 -0.3484,2.5655 -0.3727,3.7197 -0.0243,1.1542 0.2439,2.5356 0.2272,3.1808 -0.0167,0.6452 -0.1294,0.4963 -0.3254,0.6016 -0.196,0.1053 -0.3691,0.2275 -0.6463,-0.0796 -0.2772,-0.3071 -0.6408,-0.9028 -0.8768,-1.608 -0.236,-0.7052 -0.4319,-1.7495 -0.5246,-2.5779 -0.0927,-0.8284 -0.0197,-1.5806 -0.0295,-2.371l-0.3238 -0.3267c-0.3787,0.303 -0.7164,0.451 -1.136,0.9088 -0.4196,0.4578 -0.9804,1.0904 -1.3632,1.8176 -0.3828,0.7272 -0.6437,1.7037 -0.9088,2.4992 -0.2651,0.7955 -0.3333,1.6141 -0.6816,2.272 -0.3483,0.6579 -0.909,1.3014 -1.3632,1.5904 -0.4542,0.289 -0.5906,0.1947 -1.136,0 -0.5454,-0.1947 -1.354,-0.5603 -2.0448,-1.136 -0.6908,-0.5757 -1.4976,-1.8932 -2.0448,-2.272 -0.5472,-0.3788 -0.7307,-0.3962 -0.9088,0.2272 -0.1781,0.6234 0,1.9691 0,2.9536 0,1.2118 -0.0759,2.4964 0,3.6352 0.0759,1.1388 0.1489,2.1114 0.4544,3.1808 0.3055,1.0694 0.9088,2.1206 1.3632,3.1808l1.5904 1.8176c-0.3786,3.2566 -0.6435,6.4736 -1.136,9.7696 -0.4925,3.296 -1.2117,6.6646 -1.8176,9.9968 -1.4389,4.3926 -2.8007,9.122 -4.3168,13.1776 -1.5161,4.0556 -3.2546,7.9857 -4.7712,11.1328 -1.5166,3.1471 -2.8778,5.1499 -4.3168,7.7248 -0.2272,1.6662 -0.6056,3.5905 -0.6816,4.9984 -0.076,1.4079 0.3791,2.6988 0.2272,3.408 -0.3661,0.0666 -0.6004,-0.273 -0.97,-1.0534 -0.3696,-0.7804 -0.5497,-1.9884 -0.9284,-3.3516l-0.2364 -2.5273 -0.3644 -1.4741c-0.8824,0.9122 -1.4277,2.0968 -2.0448,3.408 -0.6171,1.3112 -0.8264,3.1162 -1.643,4.4268 -0.8166,1.3106 -2.5377,2.0592 -3.1537,3.2711 -0.616,1.2119 -0.3269,2.4461 -0.3379,3.5979 -0.011,1.1518 0.0475,2.3961 0.272,3.286 0.2245,0.8899 0.6959,1.4642 1.0482,1.9454 0.3523,0.4812 0.5636,0.726 1.0332,0.8978 0.4696,0.1718 1.0197,0.1158 1.6302,0.077 0.6105,-0.0388 1.3436,-0.206 2.0154,-0.3089 0.7533,0.0405 1.3167,0.0782 2.2598,0.1215 0.9431,0.0433 2.2074,-0.0052 3.3993,0.1388 1.1919,0.144 2.5572,0.5937 3.7319,0.7228 1.1747,0.1291 2.2938,0.1397 3.2896,0.0491 0.9958,-0.0906 1.7631,-0.3931 2.6446,-0.5896l2.6678 -0.9734c-0.5053,0.4892 -1.0291,0.9143 -1.5159,1.4678 -0.4868,0.5535 -1.1032,1.2813 -1.3966,1.8439 -0.2934,0.5626 -0.3373,0.9426 -0.326,1.4582 0.0113,0.5156 0.1726,1.0952 0.3928,1.5513z"/>
   <path id="_162126288" class="fil1" d="M121.857 306.344c1.229,-1.9852 2.2921,-3.5443 3.6868,-5.9556 1.3947,-2.4113 3.472,-6.022 4.6794,-8.508 1.2074,-2.486 2.05,-4.2518 2.5524,-6.381 0.5024,-2.1292 0.4968,-4.3824 0.4254,-6.2392 -0.0714,-1.8568 -0.2732,-3.3049 -0.8508,-4.8212 -0.5776,-1.5163 -0.9279,-2.7587 -1.6649,-3.7572 -0.737,-0.9985 -1.7717,-2.1984 -2.7309,-2.1984 -2.3368,0 -5.3027,5.6309 -5.9954,7.3532 -1.6422,4.0831 -2.2102,8.9767 -2.0872,13.3496 0.0474,1.6847 0.3049,3.1569 0.5672,4.254 0.8284,3.4657 1.2762,5.4032 1.2762,9.0752l-0.2836 3.2614 0.4254 0.5672z"/>
   <path id="_162705328" class="fil1" d="M137.03 246.647c0.0473,-1.2762 0.0709,-2.2452 0.1418,-3.8286 0.0709,-1.5834 -0.0019,-3.911 0.2836,-5.672 0.2855,-1.761 0.6615,-2.5517 1.418,-4.8212 0.7565,-2.2695 2.1266,-6.2144 3.1196,-8.7916 0.993,-2.5772 1.8432,-4.1589 2.836,-6.6646 0.9928,-2.5057 2.3381,-5.832 3.1196,-8.3662 0.7815,-2.5342 1.3451,-4.7783 1.5598,-6.8064 0.321,-3.0329 -0.2658,-7.1881 -1.2762,-10.0678 -0.7167,-2.0427 -2.4826,-4.5343 -3.8286,-6.2392 -0.7114,-0.9011 -1.5453,-1.8559 -2.2688,-2.4106 -0.7235,-0.5547 -1.3176,-0.8775 -1.9852,-0.8508 -0.6676,0.0267 -1.1186,0.4778 -1.5598,0.9926 -0.4412,0.5148 -0.6845,1.203 -0.9926,1.9852 -0.3081,0.7822 -0.6373,1.6978 -0.8508,2.6942 -0.6531,3.048 -0.4694,6.1604 0.1418,9.217 0.4037,2.0187 1.3233,4.1585 1.8434,6.0974 0.5201,1.9389 0.9214,3.6142 1.2762,5.5302 0.6954,3.7557 1.093,6.7346 0.2836,10.4932 -0.332,1.5416 -0.8742,3.095 -1.418,4.6794 -0.5438,1.5844 -1.2052,3.2376 -1.8434,4.8212 -0.6382,1.5836 -1.3471,3.1905 -1.9852,4.6794 -0.6381,1.4889 -1.4398,3.0905 -1.8434,4.254 -0.4036,1.1635 -0.4957,1.8833 -0.5672,2.6942 -0.0715,0.8109 -0.0516,1.4499 0.1418,2.127 0.1934,0.6771 0.6105,1.318 0.9926,1.8434 0.3821,0.5254 0.8508,0.8508 1.2762,1.2762l1.8434 1.5598 0.1418 -0.4254z"/>
   <path id="_162704984" class="fil1" d="M158.442 231.19c-0.1418,0.709 -0.0164,1.2608 -0.4254,2.127 -0.409,0.8662 -1.1739,2.071 -1.9852,2.9778 -0.8113,0.9068 -1.8113,1.7433 -2.836,2.4106 -1.0247,0.6673 -2.2008,1.2706 -3.2614,1.5598 -1.0606,0.2892 -2.1126,0.2379 -2.9778,0.1418 -0.8652,-0.0961 -1.4923,-0.294 -2.127,-0.709 -0.6347,-0.415 -1.0812,-0.9359 -1.5598,-1.7016 -0.4786,-0.7657 -1.0355,-1.6321 -1.2762,-2.836 -0.2407,-1.2039 -0.2844,-2.6844 -0.1418,-4.254 0.1426,-1.5696 0.495,-3.3272 0.9926,-5.1048 0.4976,-1.7776 1.2756,-3.7799 1.9852,-5.5302 0.7096,-1.7503 1.533,-3.6337 2.2688,-4.963 0.7358,-1.3293 1.4792,-2.282 2.127,-2.9778 0.6478,-0.6958 1.1052,-1.0048 1.7016,-1.1344 0.5964,-0.1296 1.1344,-0.0266 1.5598,0.4254 0.4254,0.452 0.4727,1.3235 0.709,1.9852 0.2363,0.6617 0.4242,1.3682 0.709,1.9852 0.2848,0.617 0.6178,1.3803 0.9926,1.7016 0.3748,0.3213 0.7097,0.198 0.9926,0 0.2829,-0.198 0.4508,-0.5589 0.4254,-0.9926 -0.0254,-0.4337 -0.3073,-0.7326 -0.5672,-1.418 -0.2599,-0.6854 -0.7779,-1.6207 -0.9926,-2.6942 -0.5138,-2.569 -0.4898,-5.594 -0.709,-8.2244 -0.1418,-1.7016 -0.26,-3.545 -0.4254,-5.672 -0.1654,-2.127 -0.3545,-4.9861 -0.5672,-7.09 -0.4951,-4.8973 -1.316,-9.0732 -3.2614,-13.6128 -0.4972,-1.1602 -0.9217,-1.7489 -1.2762,-2.4106 -0.3545,-0.6617 -0.7273,-1.0407 -0.8508,-1.5598 -0.1235,-0.5191 -0.2751,-0.7067 0.1418,-1.418 1.5379,-2.6239 5.3262,-6.0048 7.9408,-7.5154 1.3129,-0.7586 3.8164,-1.7699 5.3884,-1.7016 0.5723,0.0249 0.5532,-0.1108 1.1344,0.5672 0.5812,0.678 1.6773,2.4331 2.2688,3.4032 1.9191,3.1475 3.2498,6.7463 3.9704,10.3514 0.3312,1.6568 0.6851,3.7778 0.8508,5.672 0.1657,1.8942 0.1418,3.7572 0.1418,5.672 0,1.9148 -0.0709,4.0883 -0.1418,5.8138 -0.0709,1.7255 -0.3552,3.2947 -0.2836,4.5376 0.0716,1.2429 0.496,1.6764 0.709,2.836 0.213,1.1596 0.4961,2.7838 0.5672,4.1122 0.1934,3.6156 0.3457,7.4327 0.2836,11.0604 -0.0235,1.3724 -0.0937,3.5628 -0.2836,4.963 -0.1899,1.4002 -0.42,2.374 -0.8508,3.4032 -0.4308,1.0292 -1.0396,1.7248 -1.7016,2.6942 -0.662,0.9694 -1.6071,2.2216 -2.2688,3.1196 -0.6617,0.898 -1.1817,1.5835 -1.7016,2.2688 -0.5199,0.6853 -0.9655,1.3671 -1.418,1.8434 -0.4525,0.4763 -0.9179,0.839 -1.2762,0.9926 -0.3583,0.1536 -0.4927,0.1826 -0.709,-0.1418 -0.2163,-0.3244 -0.3071,-1.0156 -0.4254,-1.5598 -0.1183,-0.5442 -0.1646,-1.2496 -0.2836,-1.7016 -0.119,-0.452 -0.2836,-0.6617 -0.4254,-0.9926l0 -0.709 -0.8508 0z"/>
   <path id="_162715168" class="fil1" d="M109.804 171.493c-0.5797,-0.6806 -1.9378,-1.5597 -3.2614,-2.6942 -1.3236,-1.1345 -3.6581,-3.4483 -4.6794,-4.1122 -1.0213,-0.6639 -0.7535,-0.1591 -0.9926,0.4254 -0.2391,0.5845 -0.0469,1.4394 -0.2836,2.6942 -0.6292,3.3357 -1.5781,6.1374 -2.9778,9.217 -1.4705,3.2353 -3.0466,6.2825 -4.254,9.6424 -0.5438,1.5133 -1.0623,2.8304 -1.418,4.3958 -0.3557,1.5654 -0.6379,3.1587 -0.709,4.963 -0.0711,1.8043 0.189,4.466 0.2836,5.8138 0.0946,1.3478 0.3077,1.6415 0.2836,2.2688 -0.0241,0.6273 -0.0671,1.0872 -0.4254,1.418 -0.3583,0.3308 -0.9096,0.4709 -1.418,0.2836 -0.5084,-0.1873 -0.9639,-0.8437 -1.2762,-1.2762 -0.3123,-0.4325 -0.3269,-0.9157 -0.5672,-1.2762 -0.2403,-0.3605 -0.5534,-0.6774 -0.8508,-0.8508 -0.2974,-0.1734 -0.5031,-0.329 -0.8508,-0.1418 -0.3477,0.1872 -0.6349,0.5383 -0.9926,1.1344 -0.3577,0.5961 -0.8019,1.413 -1.1344,2.4106 -0.3325,0.9976 -0.6613,2.4553 -0.8508,3.545 -0.1895,1.0897 -0.3311,1.7415 -0.2836,2.9778 0.0475,1.2363 0.3304,3.1404 0.5672,4.3958 0.2368,1.2554 0.4474,2.0518 0.8508,3.1196 0.4034,1.0678 1.1783,2.0452 1.5598,3.2614 0.3815,1.2162 0.4727,2.4813 0.709,3.9704 0.2363,1.4891 0.4014,3.3775 0.709,4.963 0.3076,1.5855 0.6585,3.2288 1.1344,4.5376 0.4759,1.3088 1.0544,2.3745 1.7016,3.2614 0.6472,0.8869 1.2096,1.5637 2.127,1.9852 0.9174,0.4215 2.0126,0.4975 3.1196,0.4254 1.107,-0.0721 2.2051,-0.2997 3.4032,-0.8508 1.1981,-0.5511 2.7939,-1.5901 3.6868,-2.4106 0.8929,-0.8205 1.2431,-1.3873 1.5598,-2.4106 0.3167,-1.0233 0.0443,-2.492 0.2836,-3.545 0.2393,-1.053 0.7325,-1.8193 1.1344,-2.6942 0.4019,-0.8749 0.9647,-1.3062 1.2762,-2.5524 0.3115,-1.2462 0.3782,-3.2141 0.5672,-4.8212l0.1418 -2.6942 0.9926 0.1418c0.0946,1.3235 0.1417,2.7402 0.2836,3.9704 0.1419,1.2302 0.3529,2.5697 0.5672,3.4032 0.2143,0.8335 0.2665,1.307 0.709,1.5598 0.4425,0.2528 0.5357,0.0523 1.2762,-0.4254 0.7405,-0.4777 2.1951,-1.5809 3.1196,-2.4106 0.9245,-0.8297 1.5782,-1.387 2.4106,-2.5524 0.8324,-1.1654 1.8641,-2.9243 2.5524,-4.3958 0.6883,-1.4715 1.1108,-3.0959 1.5598,-4.3958 0.449,-1.2999 0.8031,-2.1725 1.1344,-3.4032 0.3313,-1.2307 0.5436,-2.6232 0.8508,-3.9704 0.3072,-1.3472 0.7325,-2.8589 0.9926,-4.1122 0.2601,-1.2533 0.3545,-2.2451 0.5672,-3.4032 0.2127,-1.1581 0.5434,-2.4803 0.709,-3.545 0.1656,-1.0647 0.3559,-1.9679 0.2836,-2.836 -0.0723,-0.8681 -0.2782,-1.4549 -0.709,-2.2688 -0.4308,-0.8139 -1.0386,-1.582 -1.8434,-2.5524 -0.8048,-0.9704 -2.1507,-2.3398 -2.9778,-3.2614 -0.8271,-0.9216 -1.3942,-1.5596 -1.9852,-2.2688 -0.591,-0.7092 -1.1987,-1.311 -1.5598,-1.9852 -0.3611,-0.6742 -0.321,-1.5174 -0.5672,-1.9852 -0.2462,-0.4678 -0.3818,-0.834 -0.8508,-0.709 -0.469,0.125 -0.797,0.4854 -1.2762,1.2762 -0.4792,0.7908 -1.0159,2.0789 -1.5598,3.4032 -0.5439,1.3243 -1.3225,3.3292 -1.7016,4.5376 -0.3791,1.2084 -0.3781,1.7962 -0.5672,2.6942l-0.8508 1.5598 -0.8508 0.1418c0.0946,-0.898 0.1179,-1.7469 0.2836,-2.6942 0.1657,-0.9473 0.5666,-1.8618 0.709,-2.9778 0.1424,-1.116 0.1418,-2.5278 0.1418,-3.6868 0,-1.159 -0.0469,-2.4073 -0.1418,-3.2614 -0.0949,-0.8541 -0.3073,-1.2998 -0.4254,-1.8434 -0.1181,-0.5436 -0.2361,-0.9668 -0.2836,-1.418 -0.0475,-0.4512 -0.0959,-0.7964 0,-1.2762 0.0959,-0.4798 0.3779,-1.1101 0.5672,-1.5598 0.1893,-0.4497 0.4702,-0.7459 0.5672,-1.1344 0.097,-0.3885 0.5797,-0.4538 0,-1.1344z"/>
   <path id="_162717576" class="fil1" d="M102.736 242.804c-0.4321,0.4322 -0.6167,0.694 -1.2964,1.2964 -0.6797,0.6024 -1.8976,1.6355 -2.778,2.315 -0.8804,0.6795 -1.5823,1.2772 -2.5002,1.7594 -2.6477,1.3909 -4.7377,2.2902 -7.2228,0.463 -1.7521,-1.2881 -2.4403,-3.9457 -3.6114,-5.7412 -0.533,-0.8173 -1.7559,-2.4256 -2.6854,-2.778 -0.4905,-0.186 -0.9223,0.0063 -1.2964,0.1852 -0.3741,0.1789 -0.6689,0.4714 -0.8334,0.8334 -0.1645,0.362 -0.1726,0.8035 -0.0926,1.2038 0.08,0.4003 0.211,0.6883 0.5556,1.1112 0.3446,0.4229 0.8026,0.7717 1.4816,1.389 1.5713,1.4285 3.0274,2.7681 4.4448,4.3522 0.5247,0.5864 1.0372,0.8983 1.2964,1.4816 0.2592,0.5833 0.2515,1.4044 0.1852,1.852 -0.0663,0.4476 -0.3353,0.5296 -0.5556,0.6482 -0.2203,0.1186 -0.3726,0.2585 -0.6482,0 -0.2756,-0.2585 -0.4418,-0.9504 -0.8334,-1.389 -0.3916,-0.4386 -0.9623,-0.9205 -1.4816,-1.2038 -0.5193,-0.2833 -1.1898,-0.4463 -1.5742,-0.463 -0.3844,-0.0167 -0.4837,0.0645 -0.5556,0.3704 -0.0719,0.3059 0.1389,0.632 0.1852,1.2038 0.1276,1.5766 0.1347,2.5952 -0.463,4.0744 -0.294,0.7275 -0.8025,1.6668 -1.2038,2.5002 -0.463,0.8643 -0.9876,1.79 -1.389,2.5928 -0.4014,0.8028 -0.7408,1.6205 -1.0186,2.2224 -0.2778,0.6019 -0.4157,0.9859 -0.6482,1.389 -0.2325,0.4031 -0.3134,0.9949 -0.7408,1.0186 -0.4274,0.0237 -0.6266,-0.3902 -0.926,-0.926 -0.2994,-0.5358 -0.6326,-1.6199 -0.8334,-2.2224 -0.2008,-0.6025 -0.2469,-0.926 -0.3704,-1.389l-0.2778 -1.5742c-1.314,-0.1054 -1.5908,1.1995 -1.6668,3.3336 -0.0309,0.8666 0.0618,1.852 0.0926,2.778 0.3704,0.8026 0.6618,1.6327 1.1112,2.4076 0.4494,0.7749 1.202,1.6021 1.5742,2.2224 0.3722,0.6203 0.4769,0.7495 0.6482,1.4816 0.1713,0.7321 0.324,1.9725 0.3704,2.8706 0.0464,0.8981 -0.1391,1.6938 -0.0926,2.5002 0.0491,0.853 0.0251,2.4766 0.926,2.8706 1.1052,0.4834 2.0295,-0.6467 2.6854,-1.4816 0.5162,-0.6571 0.9707,-1.586 1.2964,-2.315 1.4538,-3.2541 2.9078,-6.3144 5.093,-9.1674 2.4669,-3.2207 5.2833,-5.31 8.1488,-8.0562 1.1143,-1.0679 1.7569,-1.8949 2.4076,-2.778 0.7436,-1.0092 1.9499,-2.6696 2.5002,-3.7966 0.7606,-1.5577 1.3008,-3.5962 1.7594,-5.2782 0.2317,-0.8497 0.3704,-1.6668 0.5556,-2.5002l0.2778 -1.6668z"/>
   <path id="_162717192" class="fil1" d="M114.555 155.682c-0.0472,-0.8271 0.0248,-1.6007 -0.1418,-2.4815 -0.1666,-0.8808 -0.2628,-1.721 -0.8508,-2.7651 -0.588,-1.0441 -1.3964,-2.224 -2.6233,-3.4032 -1.2269,-1.1792 -3.3321,-2.6113 -4.6794,-3.6159 -1.3473,-1.0046 -2.2957,-1.3745 -3.4032,-2.4106 -1.1075,-1.0361 -2.2911,-2.5861 -3.1905,-3.7577 -0.8994,-1.1716 -1.5983,-2.5538 -2.1979,-3.2614 -0.5996,-0.7076 -0.8812,-0.7832 -1.3471,-0.9217 -0.4659,-0.1385 -0.9533,-0.0132 -1.2762,0.1418 -0.3229,0.155 -0.3637,0.3473 -0.4963,0.709 -0.1326,0.3617 -0.2717,0.8091 -0.2836,1.418 -0.0119,0.6089 -0.0057,1.5303 0.2127,2.1979 0.2184,0.6676 0.529,1.0482 1.0635,1.7016 0.5345,0.6534 1.3078,1.5093 2.127,2.1979 0.8192,0.6886 1.7961,1.2643 2.7651,1.9143 0.969,0.65 1.997,1.288 3.0487,1.9852 1.0517,0.6972 2.2444,1.4529 3.2614,2.1979 1.017,0.745 2.1112,1.5796 2.836,2.2688 0.7248,0.6892 1.1848,1.2718 1.4889,1.8434 0.3041,0.5716 0.1652,1.0271 0.2836,1.4889 0.1184,0.4618 0.1531,0.9049 0.4254,1.2762 0.2723,0.3713 0.7563,0.5672 1.1344,0.8508l1.0635 0.4254 0.4254 0.0709 0.3545 -0.0709z"/>
   <path id="_162716808" class="fil1" d="M111.577 131.859c0.5672,0.1418 1.2017,0.354 1.7016,0.4254 0.4999,0.0714 0.7034,0.1074 1.2762,0 1.2625,-0.2367 2.5449,-0.7758 3.7577,-1.2053 0.5672,-0.2009 0.9661,-0.5539 1.7725,-0.6381 0.8064,-0.0842 2.1353,-0.0387 2.9778,0.1418 0.8425,0.1805 1.5964,0.6458 1.9852,0.9217 0.8625,0.612 1.1118,-0.6469 2.5524,-0.4254 0.6469,0.0995 1.472,0.4336 1.9852,0.9217 0.5132,0.4881 0.7299,1.2318 0.9217,1.8434 0.1918,0.6116 0.2485,1.1145 0.2127,1.7725 -0.0358,0.658 -0.2834,1.5588 -0.4254,2.127 -0.142,0.5682 -0.3887,0.8962 -0.4254,1.2762 -0.0367,0.38 0.0256,0.7346 0.2127,0.9217 0.1871,0.1871 0.4164,0.1116 0.6381,-0.0709 0.2217,-0.1825 0.4691,-0.6025 0.5672,-0.9217 0.0981,-0.3192 -0.0838,-0.538 0,-0.9217 0.0838,-0.3837 0.1393,-0.9774 0.4963,-1.3471 0.357,-0.3697 1.1157,-0.3731 1.4889,-0.709 0.3732,-0.3359 0.5406,-0.5957 0.6381,-1.2053 0.0975,-0.6096 -0.1064,-1.6163 -0.0709,-2.3397 0.0355,-0.7234 -0.1009,-1.3827 0.2836,-1.9852 0.3845,-0.6025 1.0681,-1.1921 1.8434,-1.3471 0.7753,-0.155 1.6356,-0.0881 2.4106,0.4963 0.775,0.5844 1.5021,1.7468 1.9143,2.7651 0.7835,1.9356 0.7536,5.0643 0.9926,7.1609 0.1536,1.3471 0.4854,2.9345 0.4254,4.1122 -0.1189,2.3351 -1.5744,6.3373 -2.5524,8.3662 -0.6026,1.2501 -2.9071,4.0925 -3.8995,5.1048 -0.6066,0.6188 -1.08,0.7633 -1.7016,0.9217 -1.7477,0.4453 -4.8437,0.237 -6.6646,0.2836 -0.0236,-0.6381 -0.1664,-1.1857 -0.0709,-1.9143 0.3316,-2.5305 1.346,-4.0101 -0.4254,-6.5228 -0.517,-0.7334 -1.4172,-1.3461 -2.0561,-2.0561 -0.6389,-0.71 -1.2756,-1.5237 -1.7725,-2.1979 -0.4969,-0.6742 -0.8941,-1.1254 -1.2053,-1.8434 -0.3112,-0.718 -0.3754,-1.7538 -0.6381,-2.4106 -0.2627,-0.6568 -0.3324,-1.0224 -0.9217,-1.4889 -0.5893,-0.4665 -1.6307,-0.8037 -2.4815,-1.2053 -1.7278,-0.8155 -3.2222,-1.3788 -4.6085,-2.7651 -0.4899,-0.4899 -0.7074,-0.9541 -0.9217,-1.3471 -0.2143,-0.393 -0.2363,-0.6617 -0.3545,-0.9926l0.1418 -1.7016z"/>
   <path id="_162714032" class="fil1" d="M156.953 151.286c-0.6784,0.49 -2.3382,1.1338 -3.4032,1.5598 -1.065,0.426 -2.043,0.7323 -2.9778,0.9926 -0.9348,0.2603 -1.8456,0.5075 -2.6233,0.5672 -0.7777,0.0597 -1.3849,-0.0447 -1.9852,-0.2127 -0.6003,-0.168 -1.1761,-0.3323 -1.5598,-0.7799 -0.3837,-0.4476 -0.5672,-1.013 -0.5672,-1.7016 0,-0.6886 0.3191,-1.3588 0.5672,-2.2688 0.2481,-0.91 0.7198,-2.0742 0.9217,-3.1905 0.2019,-1.1163 0.3073,-2.2514 0.2836,-3.4741 -0.0237,-1.2227 -0.175,-2.7434 -0.4254,-3.8286 -0.2504,-1.0852 -0.709,-1.7134 -1.0635,-2.6233 -0.3545,-0.9099 -0.8256,-1.8721 -1.0635,-2.836 -0.2379,-0.9639 -0.3785,-2.0896 -0.3545,-2.9069 0.024,-0.8173 0.0983,-1.1906 0.4963,-1.9143 0.398,-0.7237 1.2643,-1.5715 1.8434,-2.3397 0.5791,-0.7682 1.1689,-1.5346 1.6307,-2.2688 0.4618,-0.7342 0.8716,-1.3981 1.1344,-2.127 0.2628,-0.7289 0.366,-1.437 0.4254,-2.1979 0.1175,-1.5061 -0.2368,-2.8885 0.2127,-4.3958 0.2031,-0.681 0.6145,-1.3234 0.9217,-1.9852l1.8434 -1.8434c0.2836,0.4491 0.5431,0.7791 0.8508,1.3471 0.3077,0.568 0.6962,1.2617 0.9926,2.0561 0.2964,0.7944 0.6253,1.6827 0.7799,2.6942 0.1546,1.0115 0.2012,2.3216 0.1418,3.3323 -0.0594,1.0107 -0.3427,1.8789 -0.4963,2.6942 -0.3478,1.8464 -0.822,3.7221 -0.9217,5.6011 -0.1345,2.535 -0.0669,4.6476 0.7799,7.0191 0.3548,0.9936 1.0635,2.6232 1.418,3.545 0.3545,0.9218 0.6477,1.3355 0.709,1.9852 0.1161,1.2311 -0.275,1.9969 0,3.4032 0.3319,1.6975 0.798,1.6664 1.4889,3.0487 0.2796,0.5594 0.4254,1.3151 0.4254,1.8434 0,0.5283 0.253,0.7153 -0.4254,1.2053z"/>
   <path id="_162741456" class="fil1" d="M143.482 124.84c0.4254,-0.4726 0.8743,-0.9925 1.2762,-1.418 0.4019,-0.4255 0.8669,-0.7087 1.1344,-1.1344 0.2675,-0.4257 0.3305,-0.9319 0.4254,-1.3471 0.0949,-0.4152 0.2432,-0.8448 0.1418,-1.1344 -0.1014,-0.2896 -0.3821,-0.2471 -0.6381,-0.2836 -0.256,-0.0365 -0.5741,-0.0674 -0.8508,0.0709 -0.2767,0.1383 -0.4936,0.3978 -0.709,0.709 -0.2154,0.3112 -0.4124,0.6579 -0.5672,1.1344 -0.1548,0.4765 -0.2363,1.1344 -0.3545,1.7016l-0.0709 1.9143 0.2127 -0.2127z"/>
   <path id="_162740480" class="fil1" d="M128.947 117.254c1.919,-1.7866 6.4512,-3.3278 9.0043,-3.0487 0.7774,0.085 1.2334,0.3117 1.6307,0.709 0.3973,0.3973 0.4945,0.9674 0.5672,1.4889 0.0727,0.5215 0.0863,0.8873 -0.1418,1.5598 -0.2281,0.6725 -0.7273,1.7175 -1.2053,2.4106 -0.751,1.089 -2.2477,2.4999 -3.3323,3.2614 -0.5613,0.3941 -1.1946,0.6803 -1.6307,0.7799 -0.4361,0.0996 -0.6028,0.0223 -0.8508,-0.2127 -0.248,-0.235 -0.4232,-0.6855 -0.4963,-1.0635 -0.2102,-1.0872 0.3009,-1.4684 -0.8508,-2.4106 -0.4036,-0.3302 -0.9924,-0.4608 -1.418,-0.6381 -0.4256,-0.1773 -0.8357,-0.2702 -1.1344,-0.4254 -0.2987,-0.1552 -0.5198,-0.2334 -0.6381,-0.4963 -0.1183,-0.2629 -0.085,-0.594 0,-0.9217 0.085,-0.3277 0.1399,-0.6608 0.4963,-0.9926z"/>
   <path id="_162739664" class="fil1" d="M154.897 113c0,-0.5908 0.0236,-1.2636 0,-1.7725 -0.0236,-0.5089 -0.0463,-0.8941 -0.1418,-1.2762 -0.0955,-0.3821 -0.3071,-0.6731 -0.4254,-0.9926 -0.1183,-0.3195 -0.2007,-0.5307 -0.2836,-0.9217 -0.0829,-0.391 -0.3456,-1.0487 -0.2127,-1.418 0.1329,-0.3693 0.4272,-0.4187 0.8508,-0.3545 0.4236,0.0642 0.9964,0.3366 1.4889,0.709 0.4925,0.3724 1.0575,0.9482 1.418,1.4889 0.3605,0.5407 0.7347,1.0458 0.709,1.7016 -0.0257,0.6558 -0.5672,1.2762 -0.8508,1.9143l-1.6307 0.9926 -0.9217 -0.0709z"/>
   <path id="_162774944" class="fil1" d="M95.1645 126.167c-0.0304,-0.3648 0.019,-0.6427 -0.1818,-1.0908 -0.2008,-0.4481 -0.4505,-0.9348 -0.9999,-1.5453 -0.5494,-0.6105 -1.5755,-1.424 -2.2725,-2.0907 -0.697,-0.6667 -1.389,-1.4807 -1.9089,-1.9089 -0.5199,-0.4282 -0.7969,-0.5562 -1.1817,-0.6363 -0.3848,-0.0801 -0.783,-0.0943 -0.9999,0.1818 -0.2015,0.2565 -0.0067,1.9308 0.0909,2.2725 0.1231,0.431 0.2902,0.9703 0.6363,1.3635 0.3461,0.3932 0.8939,0.5909 1.3635,0.909 0.4696,0.3181 0.9384,0.5901 1.4544,0.9999 0.516,0.4098 1.1952,0.9982 1.6362,1.4544 0.441,0.4562 0.6666,0.8484 0.9999,1.2726l0.4545 0.7272c0.2188,-0.0248 0.4773,0.0865 0.6564,-0.0746 0.1791,-0.1611 0.2101,-0.4338 0.2526,-0.7435 0.0425,-0.3097 0.0304,-0.726 0,-1.0908z"/>
   <path id="_162774560" class="fil1" d="M123.562 128.754c-0.1706,-0.5461 -0.1614,-1.1619 -0.512,-1.6384 -0.3506,-0.4765 -0.9195,-0.7412 -1.4848,-1.0752 -0.5653,-0.334 -1.2276,-0.6481 -1.8944,-0.9216 -0.6668,-0.2735 -1.5103,-0.5034 -2.0992,-0.7168 -0.5889,-0.2134 -1.0527,-0.3468 -1.4336,-0.5632 -0.3809,-0.2164 -0.6471,-0.4269 -0.8192,-0.7168 -0.1721,-0.2899 -0.29,-0.6002 -0.1536,-0.9216 0.1364,-0.3214 0.3999,-0.6233 0.8704,-0.768 0.4705,-0.1447 1.2202,-0.1743 1.792,-0.0512 0.5718,0.1231 0.9969,0.7041 1.536,0.768 0.5391,0.0639 1.1288,-0.1113 1.4848,-0.4096 0.356,-0.2983 0.5196,-0.5908 0.4096,-1.1776 -0.11,-0.5868 -0.3801,-1.42 -1.024,-2.0992 -0.6439,-0.6792 -1.9006,-1.4368 -2.7136,-1.8432 -0.813,-0.4064 -1.2068,-0.4431 -2.0992,-0.5632 -0.8924,-0.1201 -2.1145,0.0617 -3.2256,-0.1536 -1.1111,-0.2153 -2.2955,-0.7766 -3.3792,-1.1264 -1.0837,-0.3498 -2.1538,-0.5611 -3.1232,-0.9728 -0.9694,-0.4117 -1.8517,-1.0154 -2.6624,-1.4848 -0.8107,-0.4694 -1.4163,-1.0033 -2.2016,-1.3312 -0.7853,-0.3279 -1.7837,-0.8912 -2.4576,-0.6144 -0.6739,0.2768 -0.544,1.012 -0.4096,1.792 0.1344,0.78 0.6662,1.8909 1.1776,2.6624 0.5114,0.7715 1.2958,1.253 1.8432,1.8944 0.5474,0.6414 1.2131,1.4217 1.4336,1.9456 0.2205,0.5239 -0.0404,0.7407 -0.2048,0.9728 -0.1644,0.2321 -0.227,0.2647 -0.6656,0.256 -0.4386,-0.0087 -1.4142,-0.4172 -1.8944,-0.3072 -0.4802,0.11 -0.5632,0.4646 -0.5632,0.8704 0,0.4058 -0.0711,0.5936 0.5632,1.28 0.6343,0.6864 1.9102,2.0115 3.1744,2.7648 1.2642,0.7533 2.632,1.1934 4.3008,1.6896 1.6688,0.4962 3.9416,0.9386 5.6832,1.28 1.7416,0.3414 3.3608,0.5972 4.7616,0.768 1.4008,0.1708 2.7635,0.1621 3.6352,0.256 0.8717,0.0939 1.0582,0.2048 1.5872,0.3072l0.768 -0.0512z"/>
   <path id="_162729848" class="fil1" d="M117.369 114.217c0.5728,-0.2545 0.9355,-0.45 1.1064,-1.0142 0.1709,-0.5642 -0.0138,-1.33 -0.1844,-2.0284 -0.3103,-1.2703 -1.1144,-3.2289 -1.9362,-4.2412 -0.5395,-0.6646 -1.2231,-1.2406 -2.0745,-1.7979 -0.8514,-0.5573 -2.0121,-1.0752 -2.9965,-1.5213 -1.9896,-0.9016 -3.9667,-1.5504 -6.1313,-1.8901 -1.3624,-0.2138 -3.6907,-0.5589 -4.5178,0.8298 -0.6504,1.0921 -0.7189,2.1422 -0.3227,3.3653 0.2965,0.9154 1.4548,2.318 2.0745,3.0426 0.5011,0.5859 1.0731,1.1888 1.7518,1.7518 1.5621,1.2958 3.2824,2.2044 5.1632,2.9504 1.9781,0.7846 3.7088,1.1437 5.8547,1.0142 0.898,-0.0542 1.64,-0.2065 2.2128,-0.461z"/>
   <path id="_162729464" class="fil1" d="M193.188 19.6555c-0.1684,-0.1386 -0.6334,-0.4765 -0.9571,-0.6193 -0.3237,-0.1428 -0.6527,-0.2658 -0.9571,-0.2252 -0.3044,0.0406 -0.5175,0.1969 -0.7319,0.4504 -0.2144,0.2535 -0.3377,0.6284 -0.5067,1.0134 -0.169,0.385 -0.3097,0.7882 -0.5067,1.2949 -0.197,0.5067 -0.4692,1.2199 -0.6756,1.7453 -0.2064,0.5254 -0.3752,0.9942 -0.563,1.4075 -0.1878,0.4133 -0.4032,0.7124 -0.563,1.0697 -0.1598,0.3573 -0.3091,0.7296 -0.3941,1.0697 -0.085,0.3401 -0.1322,0.7217 -0.1126,0.9571 0.0196,0.2354 -0.0176,0.35 0.2252,0.3941 0.2428,0.0441 0.6454,0.0151 1.0134,-0.1689 0.368,-0.184 0.7208,-0.4956 1.126,-0.9008 0.4052,-0.4052 0.9464,-1.0397 1.2949,-1.5201 0.3485,-0.4804 0.599,-0.9159 0.7882,-1.3512 0.1892,-0.4353 0.2346,-0.7974 0.3378,-1.2386 0.1032,-0.4412 0.2252,-1.0504 0.2815,-1.4075 0.0563,-0.3571 -0.0562,-0.5171 0.0563,-0.7319 0.1125,-0.2148 0.4183,-0.2671 0.563,-0.4504 0.1447,-0.1833 0.2339,-0.4861 0.2815,-0.6193 0.0476,-0.1332 0.1684,-0.0303 0,-0.1689z"/>
   <path id="_162742048" class="fil1" d="M198.537 18.4169c-0.2855,-0.2234 -0.993,-0.2815 -1.4075,-0.2815 -0.4145,0 -0.6765,0.089 -1.0134,0.2815 -0.3369,0.1925 -0.6381,0.5537 -0.9571,0.8445 -0.319,0.2908 -0.7457,0.6222 -0.9571,0.9008 -0.2114,0.2786 -0.2246,0.4375 -0.2815,0.7319 -0.1226,0.6344 -0.0512,1.1116 -0.2815,1.7453 -0.1501,0.413 -0.4035,1.0697 -0.6756,1.7453 -0.2721,0.6756 -0.6662,1.5574 -0.9571,2.3083 -0.2909,0.7509 -0.6189,1.6408 -0.7882,2.1957 -0.1693,0.5549 -0.2448,0.7836 -0.2252,1.126 0.0196,0.3424 0.1123,0.6292 0.3378,0.8445 0.2255,0.2153 0.5127,0.3185 0.9008,0.3378 0.3881,0.0193 0.935,-0.1023 1.3512,-0.2252 0.4162,-0.1229 0.7904,-0.1711 1.126,-0.5067 0.3356,-0.3356 0.5706,-0.8399 0.7882,-1.4075 0.2176,-0.5676 0.319,-1.3135 0.5067,-1.9705 0.1877,-0.657 0.4781,-1.3775 0.6193,-1.9705 0.1412,-0.593 0.197,-1.0208 0.2252,-1.5764 0.0282,-0.5556 -0.0846,-1.2913 -0.0563,-1.7453 0.0283,-0.454 0.0221,-0.6089 0.2252,-0.9571 0.2031,-0.3482 0.7223,-0.7879 0.9571,-1.0697 0.2348,-0.2818 0.3539,-0.3876 0.4504,-0.6193 0.0965,-0.2317 0.3981,-0.5085 0.1126,-0.7319z"/>
   <path id="_162741888" class="fil1" d="M203.941 19.2614c-0.2814,-0.0938 -0.5245,-0.1403 -0.8445,-0.2815 -0.32,-0.1412 -0.7671,-0.4401 -1.0697,-0.563 -0.3026,-0.1229 -0.5027,-0.1888 -0.7319,-0.1689 -0.2292,0.0199 -0.334,0.0811 -0.563,0.2815 -0.229,0.2004 -0.5798,0.5882 -0.7882,0.9008 -0.2084,0.3126 -0.3372,0.6267 -0.4504,0.9571 -0.1132,0.3304 -0.1596,0.685 -0.2252,1.0134 -0.1602,0.802 -0.3299,1.2273 -0.6756,1.9705 -0.1877,0.4035 -0.4222,0.9099 -0.6193,1.4075 -0.1971,0.4976 -0.3472,0.9947 -0.563,1.5764 -0.2158,0.5817 -0.5439,1.3219 -0.7319,1.9142 -0.188,0.5923 -0.3187,1.133 -0.3941,1.6327 -0.0754,0.4997 -0.0944,0.9794 -0.0563,1.3512 0.0381,0.3718 0.0146,0.6311 0.2815,0.8445 0.2669,0.2134 0.6101,0.2815 1.126,0.2815 0.5159,0 1.3505,0.0874 1.9142,-0.2815 0.5637,-0.3689 0.9049,-1.0757 1.1823,-1.7453 0.2774,-0.6696 0.2909,-1.4075 0.4504,-2.1957 0.1595,-0.7882 0.3941,-1.8574 0.5067,-2.5335 0.1809,-1.0863 0.2081,-1.8383 0.6756,-2.8713 0.2255,-0.4982 0.6287,-1.2292 0.8445,-1.6327 0.2158,-0.4035 0.3003,-0.5254 0.4504,-0.7882l0.2815 -1.0697z"/>
   <path id="_162848704" class="fil1" d="M213.118 22.2453c-0.3944,-0.1972 -1.1632,-0.5722 -1.8016,-0.8445 -0.6384,-0.2723 -1.4263,-0.5536 -2.0268,-0.7882 -0.6005,-0.2346 -1.0661,-0.5327 -1.5764,-0.6193 -0.5103,-0.0866 -1.0232,-0.0254 -1.4075,0.1126 -0.3843,0.138 -0.5935,0.3835 -0.7882,0.6756 -0.1947,0.2921 -0.2715,0.644 -0.3378,1.0134 -0.0663,0.3694 -0.0563,0.844 -0.0563,1.1823 0,0.3383 0.1459,0.5557 0.0563,0.8445 -0.0896,0.2888 -0.281,0.2994 -0.563,0.7882 -0.282,0.4888 -0.7126,1.4441 -1.126,2.1394 -0.4134,0.6953 -1.0208,1.4132 -1.3512,2.0268 -0.3304,0.6136 -0.4873,1.1801 -0.6193,1.6327 -0.132,0.4526 -0.1595,0.7288 -0.1689,1.0697 -0.0094,0.3409 -0.0255,0.6612 0.1126,0.9571 0.1381,0.2959 0.2714,0.6664 0.6756,0.7319 0.4042,0.0655 0.9523,-0.0478 1.4075,-0.3941 0.4552,-0.3463 0.6843,-0.9938 1.1823,-1.5764 0.498,-0.5826 1.3417,-1.4074 1.8016,-1.9142 0.4599,-0.5068 0.7882,-0.7883 0.9571,-1.126 0.1689,-0.3377 0.0188,-0.4595 0,-0.7882 -0.0188,-0.3287 -0.075,-0.7881 -0.1126,-1.1823l0.0563 -0.6756c0.3003,0.2065 0.5347,0.3471 0.9008,0.6193 0.3661,0.2722 0.8014,0.7382 1.2949,1.0134 0.4935,0.2752 1.0508,0.5144 1.6327,0.6193 0.5819,0.1049 1.2813,0.106 1.8016,0 0.5203,-0.106 0.9039,-0.3707 1.2386,-0.6193 0.3347,-0.2486 0.506,-0.5338 0.7319,-0.8445 0.2259,-0.3107 0.3926,-0.7205 0.6193,-1.0134 0.2267,-0.2929 0.4911,-0.5682 0.7319,-0.7319 0.2408,-0.1637 0.4667,-0.2582 0.6756,-0.2252 0.2089,0.033 0.2882,0.211 0.3941,0.3941 0.1059,0.1831 0.2558,0.4203 0.2252,0.6756 -0.0771,0.6438 -0.8041,0.9888 -1.0697,1.5201 -0.173,0.3461 -0.2998,0.744 -0.3378,1.2386 -0.038,0.4946 -0.0785,1.0488 0.1126,1.689 0.917,3.0723 3.1623,5.9649 4.3351,9.008 0.9566,2.4821 1.1601,4.2827 1.2949,6.9812 0.1208,2.42 0.7806,4.4324 1.8579,6.5871 0.2825,0.565 0.5495,0.6834 0.6756,1.0134 0.1261,0.33 0.1395,0.651 0.0563,0.9008 -0.0832,0.2498 -0.1706,0.3615 -0.5067,0.4504 -0.3361,0.0889 -0.8899,-0.0096 -1.4075,0.0563 -0.5176,0.0659 -1.1552,0.1282 -1.689,0.3378 -2.1736,0.8535 -3.895,3.3529 -4.1099,5.63 -0.0659,0.6979 -0.0563,1.35 0,2.252 0.1861,2.9831 1.0499,5.1505 2.8713,7.4879 0.5655,0.7257 0.9721,1.1605 1.689,1.7453 2.3841,1.9448 3.7878,2.0866 6.756,2.3646 0.6073,0.0569 0.9576,0.1284 1.3512,0.3941 0.3936,0.2657 0.7333,0.7218 0.9008,1.126 0.1675,0.4042 0.1338,0.8041 0.0563,1.1823 -0.0775,0.3782 -0.0732,0.6686 -0.5067,1.0134 -0.4335,0.3448 -1.2341,0.7022 -1.9705,0.9571 -0.7364,0.2549 -1.5719,0.4593 -2.4209,0.563 -0.849,0.1037 -1.723,0.1222 -2.6461,0.0563 -0.9231,-0.0659 -1.9367,-0.1955 -2.8713,-0.4504 -0.9346,-0.2549 -1.892,-0.6647 -2.7024,-1.0697 -0.8104,-0.405 -1.4823,-0.9101 -2.1394,-1.3512 -0.6571,-0.4411 -1.2738,-0.9746 -1.8016,-1.2949 -0.5278,-0.3203 -0.9007,-0.4128 -1.3512,-0.6193l-1.2386 -0.1126c-0.0375,0.2816 -0.1798,0.4411 -0.1126,0.8445 0.0672,0.4034 0.1487,0.7852 0.5067,1.5201 0.899,1.8455 1.9025,3.4123 3.378,4.8418 0.6024,0.5836 1.2156,1.1045 1.8579,1.5201 0.6423,0.4156 1.1784,0.7567 1.9705,0.9571 0.7921,0.2004 1.8603,0.3113 2.7024,0.2252 0.8421,-0.0861 1.6435,-0.4372 2.252,-0.7319 0.6085,-0.2947 0.9947,-0.7413 1.3512,-1.0134 0.3565,-0.2721 0.4522,-0.6077 0.7882,-0.6193 0.336,-0.0116 0.3673,0.4008 0.8445,0.563 1.334,0.4534 2.9479,0.5596 4.3351,0.3378 0.7754,-0.124 2.6658,-0.6928 3.2091,-1.2949 0.3684,-0.4083 0.6538,-1.0077 0.7319,-1.6327 0.0781,-0.625 -0.1304,-1.3754 -0.2815,-1.9705 -0.4892,-1.9269 -0.7181,-3.1884 -0.7882,-5.2922 -0.1075,-3.2282 0.1907,-6.1514 0.3378,-9.3458 0.0658,-1.4284 0.0474,-2.8842 -0.0563,-3.941 -0.1037,-1.0568 -0.3179,-1.6387 -0.563,-2.3646 -0.2451,-0.7259 -0.6193,-1.3418 -0.9008,-1.9705 -0.2815,-0.6287 -0.4779,-1.2091 -0.7882,-1.8016 -0.6307,-1.2043 -1.4022,-2.3268 -2.0268,-3.5469 -0.4035,-0.7882 -0.985,-2.0451 -1.4638,-2.9276 -1.0578,-1.9498 -1.8938,-3.6828 -2.7587,-5.7426 -0.3941,-0.9385 -0.685,-1.4919 -1.0134,-2.252 -0.3284,-0.7601 -0.6381,-1.5483 -0.9571,-2.3083 -0.319,-0.76 -0.6191,-1.3506 -0.9571,-2.252 -0.338,-0.9014 -0.7695,-2.2614 -1.0697,-3.1528 -0.8096,-2.4041 -1.1078,-5.4967 -2.0268,-7.7131 -0.1669,-0.4025 -0.4066,-0.6758 -0.7882,-0.9008 -0.3816,-0.225 -0.9837,-0.3094 -1.4075,-0.3941 -0.4238,-0.0847 -0.7208,-0.1126 -1.126,-0.1126 -0.4052,0 -0.8991,0.1126 -1.2949,0.1126 -0.3958,0 -0.7915,-0.0359 -1.0697,-0.1126 -0.2782,-0.0767 -0.1686,-0.1406 -0.563,-0.3378z"/>
   <path id="_162848336" class="fil1" d="M215.21 35.8901c0.3809,0.1995 0.7358,0.238 1.1424,0.5984 0.4066,0.3604 0.904,0.975 1.2512,1.5232 0.5775,0.9118 1.2421,2.3044 1.632,3.3184 0.2278,0.5924 0.3988,1.3139 0.544,1.9584 0.1452,0.6445 0.2358,1.2692 0.3264,1.904 0.1601,1.1219 0.3131,2.2914 0.272,3.4272 -0.0249,0.6891 -0.0568,2.0212 -0.6528,2.5024 -0.269,0.2172 -0.5813,0.2704 -0.9248,0.1088 -0.7809,-0.3674 -1.2907,-1.5685 -1.5232,-2.3392 -0.4005,-1.3277 -0.3122,-2.7672 -0.4352,-4.1344 -0.0816,-0.907 -0.1995,-1.9219 -0.3264,-2.8288 -0.1269,-0.9069 -0.2719,-1.8217 -0.4352,-2.6112 -0.2109,-1.0201 -0.4857,-1.9763 -0.8704,-2.9376l0 -0.4896z"/>
   <path id="_162863840" class="fil1" d="M204.37 79.7229c0.0681,0.4761 0.0278,1.0052 0.204,1.428 0.1762,0.4228 0.1501,0.652 0.816,1.02 0.6659,0.368 2.226,0.5187 3.06,1.122 1.2706,0.9191 2.3829,2.6041 1.428,4.08 -0.3948,0.6102 -1.0272,1.2961 -1.938,1.734 -0.9108,0.4379 -1.9475,0.7988 -3.366,0.816 -1.4185,0.0172 -3.303,-0.2518 -4.998,-0.714 -1.695,-0.4622 -3.4333,-1.4278 -5.1,-2.04 -1.6667,-0.6122 -3.3661,-1.1221 -4.896,-1.632 -1.5299,-0.5099 -3.2146,-0.9106 -4.284,-1.428 -1.3168,-0.6371 -2.8288,-1.7318 -2.04,-3.366 0.4985,-1.0327 2.8301,-2.1626 3.876,-2.346 1.7507,-0.307 4.9103,-0.132 6.732,0 3.0243,0.219 5.957,1.1753 8.976,1.53l1.53 -0.204z"/>
   <path id="_162863704" class="fil1" d="M205.391 69.0129c0.12,0.4629 0.4398,0.8902 0.51,1.224 0.0702,0.3338 0.1404,0.4529 -0.102,0.714 -1.1004,1.1853 -2.8434,0.6988 -4.284,0.51 -2.1566,-0.2827 -3.7967,-0.9462 -5.814,-1.632 -1.8374,-0.6246 -3.9763,-1.2625 -5.916,-1.326 -1.0503,-0.0344 -1.6642,0.1697 -2.754,0.408 -2.1261,0.4649 -4.1818,1.222 -6.324,1.632 -1.4894,0.285 -3.0757,0.4428 -4.59,0.51 -1.2579,0.0558 -2.7252,0.1283 -3.978,0 -0.6656,-0.0682 -1.786,-0.1981 -2.244,-0.408 -0.458,-0.2099 -0.3801,-0.3813 -0.204,-0.714 0.1761,-0.3327 0.5027,-0.6587 1.122,-1.02 0.6193,-0.3613 1.6077,-0.8479 2.55,-1.122 1.732,-0.5038 4.2121,-0.9072 6.018,-1.02 5.5478,-0.3465 5.5925,-2.1344 9.282,-5.406 0.9059,-0.8033 1.7999,-1.5043 2.754,-1.938 0.9541,-0.4337 1.8216,-0.5776 2.856,-0.612 1.0344,-0.0344 2.1009,0.1173 3.264,0.408 1.1631,0.2907 2.611,0.8126 3.672,1.326 1.061,0.5134 2.0152,1.2005 2.652,1.734 0.6368,0.5335 0.8917,0.5244 1.122,1.428 0.4355,1.7087 -0.0397,3.5768 0.408,5.304z"/>
   <path id="_162863320" class="fil1" d="M182.875 62.3304c-0.5684,0.4928 -0.8293,0.9067 -1.7055,1.4781 -0.8762,0.5714 -2.4568,1.4752 -3.5247,1.9329 -1.0679,0.4577 -1.952,0.7185 -2.8425,0.7959 -2.3977,0.2084 -3.3203,-1.0419 -5.0028,-2.3877 -0.3844,-0.3075 -0.7951,-0.8162 -1.2507,-0.6822 -0.4556,0.134 -0.4717,0.5616 -0.6822,1.2507 -0.2105,0.6891 -0.1217,1.8906 -0.5685,2.8425 -0.4468,0.9519 -1.2265,1.8705 -2.0466,2.7288 -0.8201,0.8583 -1.7411,1.5901 -2.8425,2.3877 -1.1014,0.7976 -2.7271,1.7993 -3.7521,2.3877 -1.025,0.5884 -1.6482,0.8147 -2.3877,1.137 -0.7395,0.3223 -1.5372,0.4628 -2.0466,0.7959 -0.5094,0.3331 -0.7498,0.7974 -0.9096,1.137 -0.1598,0.3396 -0.3772,0.6612 0,0.7959 1.0256,0.3662 2.9519,-0.8322 3.9795,-1.0233 0.5886,-0.1094 4.2526,-0.5039 4.2069,0 -0.0721,0.7935 -0.1607,0.9204 -1.9329,2.3877 -1.7722,1.4673 -6.1337,4.7335 -8.6412,6.3672 -2.5075,1.6337 -4.1791,2.4787 -6.3672,3.411 -3.9044,1.6635 -7.5706,2.735 -11.8248,2.1603 -2.5082,-0.3388 -4.4341,-1.7433 -6.2535,-3.411 -0.6873,-0.63 -0.9372,-0.9784 -1.137,-1.4781 -0.1998,-0.4997 -0.2506,-0.9049 0,-1.3644 0.2506,-0.4595 0.6884,-0.8087 1.3644,-1.137 0.676,-0.3283 1.5918,-0.4738 2.6151,-0.7959 1.0233,-0.3221 2.6929,-0.7308 3.5247,-1.137 0.8318,-0.4062 1.1833,-0.7525 1.3644,-1.2507 0.1811,-0.4982 -0.044,-0.881 -0.4548,-1.2507 -0.4108,-0.3697 -1.0951,-0.6981 -1.8192,-0.7959 -0.7241,-0.0978 -1.762,0.1516 -2.3877,0.2274 -0.6257,0.0758 -1.0189,0.3195 -1.3644,0.2274 -0.3455,-0.0921 -0.3863,-0.4108 -0.3411,-0.6822 0.0452,-0.2714 0.1433,-0.4116 0.5685,-0.6822 0.4252,-0.2706 1.2885,-0.5874 1.9329,-0.9096 2.1742,-1.0871 2.8945,-1.3763 1.9329,-3.9795 -0.3225,-0.8728 -0.812,-2.2687 -1.3644,-3.2973 -0.5524,-1.0286 -1.2468,-2.023 -1.9329,-2.8425 -1.3425,-1.6035 -2.582,-2.4148 -4.548,-3.0699 -0.6857,-0.2285 -1.2346,-0.1253 -1.7055,-0.3411 -0.4709,-0.2158 -0.819,-0.4805 -1.0233,-0.9096 -0.2043,-0.4291 -0.3014,-0.9984 -0.1137,-1.4781 0.1877,-0.4797 0.514,-0.8061 1.137,-1.137 0.623,-0.3309 1.4356,-0.5866 2.5014,-0.7959 1.0658,-0.2093 2.4063,-0.3222 3.8658,-0.4548 1.4595,-0.1326 3.4093,-0.3032 4.8891,-0.3411 1.4798,-0.0379 2.572,-0.0574 3.9795,0.1137 1.4075,0.1711 3.1232,0.5486 4.4343,0.9096 1.3111,0.361 2.5172,0.9845 3.411,1.2507 0.8938,0.2662 1.1308,0.3221 1.9329,0.3411 2.9791,0.0705 3.6875,-1.1059 6.2535,-2.1603 1.3917,-0.5719 3.2492,-1.173 4.8891,-1.4781 1.6399,-0.3051 3.3672,-0.3601 4.8891,-0.3411 1.5219,0.019 2.6694,0.1891 4.2069,0.4548 1.5375,0.2657 3.1976,0.567 5.0028,1.137 1.8052,0.57 4.4073,1.8357 5.7987,2.274 1.3914,0.4383 1.6677,0.2275 2.5014,0.3411l1.5918 0.3411z"/>
   <path id="_162862936" class="fil1" d="M103.33 7.6784c-0.4906,-0.049 -0.8691,0.2146 -1.265,0.6325 -0.3959,0.4179 -0.7163,1.3064 -1.012,1.771 -0.2957,0.4646 -0.5668,0.649 -0.759,1.012 -0.1922,0.363 -0.1476,0.5269 -0.3795,1.1385 -0.2319,0.6116 -0.6528,1.7694 -1.012,2.53 -0.3592,0.7606 -0.7454,1.5654 -1.1385,2.024 -0.3931,0.4586 -0.8209,0.4208 -1.1385,0.6325 -0.6733,0.4489 -1.2467,1.4342 -0.8855,2.277 0.1369,0.3194 0.6022,0.3557 0.759,0.759 0.1568,0.4033 0.3102,1.0129 0.1265,1.518 -0.1837,0.5051 -0.5781,0.8986 -0.8986,1.4114 -0.3205,0.5128 -0.6519,1.1072 -0.9468,1.7606 -0.5115,1.1331 -1.121,2.0843 -1.8231,3.153 -0.2071,0.3151 -0.1711,0.6172 -0.1265,0.8855 0.1194,0.7167 0.9476,0.6952 1.602,0.6545 0.6504,-0.0405 1.1839,-0.4748 1.8135,-0.6545 0.3028,-0.0865 0.5308,-0.0912 0.759,0 0.3877,0.1549 0.562,0.7323 1.012,0.8855 1.9463,0.6625 1.6748,-0.5257 1.926,-0.772 0.2226,-0.2184 0.4683,-0.1542 0.6169,0.0687 0.1486,0.2229 0.0763,0.8371 -0.0129,1.0828 -0.0892,0.2457 -0.158,0.5165 -0.506,0.6325 -0.348,0.116 -0.903,0.0637 -1.3915,0 -0.4885,-0.0637 -1.0743,-0.2951 -1.518,-0.3795 -0.4437,-0.0844 -0.8408,-0.2257 -1.1385,-0.1265 -0.3244,0.1081 -0.5632,1.0792 -0.6325,1.3915 -0.0845,0.3805 -0.2317,1.113 -0.253,1.518 -0.0159,0.304 -0.0061,1.0529 0.3795,1.1385 0.2022,0.0449 0.5271,0 0.8855,0 0.3584,0 0.9267,-0.0211 1.265,0 0.3383,0.0211 0.5052,0.1054 0.759,0.1265 0.2538,0.0211 0.4389,0.064 0.759,0 0.3201,-0.064 0.7163,-0.4498 1.1385,-0.3795 0.4222,0.0703 0.8571,0.4776 1.1385,0.759 0.2814,0.2814 0.4818,0.5937 0.506,0.8855 0.0242,0.2918 -0.1141,0.5119 -0.3795,0.6325 -0.2654,0.1206 -0.6892,0.0645 -1.012,0 -0.3228,-0.0645 -0.48,-0.2942 -0.8855,-0.3795 -0.4055,-0.0853 -0.9466,-0.0207 -1.518,-0.1265 -0.5714,-0.1058 -1.3362,-0.4629 -1.8975,-0.506 -0.5613,-0.0431 -1.0619,0.1212 -1.3915,0.253 -0.3296,0.1318 -0.4556,0.2788 -0.506,0.506 -0.1191,0.5371 0.417,1.114 0.8855,1.1385 0.4076,0.0214 1.2437,-0.1054 1.6445,-0.1265 0.4008,-0.0211 0.4592,-0.0642 0.759,0 0.2998,0.0642 0.7285,0.1833 1.012,0.3795 0.2835,0.1962 0.6693,0.4633 0.6325,0.759 -0.0226,0.1816 -2.8162,1.7702 -3.414,2.6835 -0.5947,0.9085 -0.7721,1.6741 -0.128,3.3885 0.64,1.7034 2.5703,1.6783 4.301,1.1385 1.0548,-0.329 1.9163,-0.871 2.9095,-1.012 1.4412,-0.2046 3.351,-0.2608 4.807,-0.3795 1.0336,-0.0843 1.9865,0.139 2.783,-0.1265 1.0909,-0.3636 2.5293,-1.9538 2.9095,-3.036 0.7754,-2.207 0.3507,-3.4453 -0.1265,-5.566 -0.1898,-0.8435 -0.4213,-1.7462 -0.506,-2.53 -0.1081,-1.0003 -0.3101,-2.9482 0.759,-3.542 0.6249,-0.3471 1.8288,-0.2514 2.6565,-0.506 0.8277,-0.2546 1.5584,-0.6316 2.277,-1.012 0.7186,-0.3804 1.4937,-0.862 2.024,-1.265 0.5303,-0.403 0.876,-0.6791 1.1385,-1.1385 0.2625,-0.4594 0.4019,-1.0693 0.3795,-1.518 -0.0224,-0.4487 -0.3088,-0.7709 -0.506,-1.012 -0.1972,-0.2411 -0.4569,-0.182 -0.6325,-0.3795 -0.1756,-0.1975 -0.4258,-0.3656 -0.3795,-0.759 0.0463,-0.3934 0.4217,-0.9065 0.6325,-1.3915 0.543,-1.2493 0.8562,-2.1317 0.759,-3.542 -0.0426,-0.6177 0.0245,-1.1058 -0.3795,-1.6445 -0.404,-0.5387 -1.1958,-1.0088 -1.8975,-1.3915 -1.7456,-0.952 -3.96,-1.5467 -5.819,-2.277l-6.4515 -2.024c-0.8174,-0.3344 -3.3935,-1.9587 -4.048,-2.024z"/>
   <path id="_162864264" class="fil1" d="M123.701 29.2509l-1.548 0.344c-0.8617,0.1915 -1.9379,0.2448 -2.752,0.516 -0.8029,0.2675 -3.494,1.3872 -3.784,2.064 -0.1434,0.3346 -0.2513,0.6738 -0.2799,1.3906 -0.0659,1.6539 0.1304,3.2147 -0.0641,4.8874 -0.0717,0.6166 -0.1573,1.2736 -0.258,1.72 -0.1007,0.4464 -0.1718,0.5584 -0.344,0.946 -0.3672,0.8265 -0.715,1.1594 -0.602,2.064 0.3727,-0.0286 0.6829,0.03 1.118,-0.086 0.4351,-0.116 0.9309,-0.3436 1.462,-0.602 0.5311,-0.2584 1.2311,-0.6297 1.72,-0.946 0.4889,-0.3163 0.9507,-0.648 1.204,-0.946 0.4099,-0.4822 0.4672,-1.8007 0.602,-2.408 0.1146,-0.516 0.0555,-0.7694 0.344,-1.462 0.2885,-0.6926 0.946,-1.849 1.376,-2.666 0.43,-0.817 0.958,-1.6425 1.204,-2.236 0.3107,-0.7497 0.3867,-1.7723 0.602,-2.58z"/>
   <path id="_162862616" class="fil1" d="M125.728 27.4605c0.9855,-0.4012 1.2556,-1.8572 2.1777,-2.3058 0.8123,-0.3952 2.0446,0.2002 2.5193,0.8967 0.7714,1.1317 0.9505,2.1747 0.6832,3.5441 -0.2105,1.0782 -1.3011,2.5384 -2.3058,3.0744 -0.5369,0.2864 -1.2541,0.18 -1.8361,0.2989 -0.3155,0.0645 -0.5001,0.139 -0.6832,0.2562 -0.38,0.2432 -0.5854,0.7563 -0.5978,1.1956 -0.0073,0.2571 0.0399,0.5334 0.1708,0.7259 0.1309,0.1925 0.3022,0.2896 0.5551,0.3416 0.4302,0.0884 1.3284,-0.0248 1.708,-0.2562 0.675,-0.4115 1.553,-1.3531 2.0496,-1.9642 0.3716,-0.4573 0.8098,-1.0791 1.1102,-1.6226 0.3004,-0.5435 0.5325,-1.0769 0.6832,-1.6226 0.385,-1.3943 0.4421,-3.4323 -0.2135,-4.7824 -0.2482,-0.5111 -0.6702,-0.9272 -1.0248,-1.2383 -0.6562,-0.5757 -1.3284,-0.727 -2.1777,-0.6405 -0.6373,0.0649 -1.1948,0.3126 -1.708,0.6832 -0.4667,0.3371 -1.0062,0.7841 -1.3664,1.2383 -0.3161,0.3986 -0.6153,0.9411 -0.6832,1.4518 -0.0292,0.2196 0.025,0.3838 0.0854,0.5124 0.1321,0.2812 0.5965,0.3183 0.854,0.2135z"/>
   <path id="_162862232" class="fil1" d="M117.376 49.6924c-0.2598,-0.1485 -0.466,-0.4966 -0.6409,-0.8381 -0.2879,-0.5622 -0.6261,-1.6298 -0.5423,-2.2678 0.0429,-0.3266 0.139,-0.5774 0.3944,-0.7888 0.2554,-0.2114 0.6899,-0.2793 1.0353,-0.3944 0.8806,-0.2934 0.9997,-0.4748 1.7255,-0.9367 0.2753,-0.1752 0.6888,-0.3432 0.9367,-0.3944 0.2479,-0.0512 0.3732,-0.0911 0.493,0.0986 0.1198,0.1897 0.1069,0.5233 0.0986,0.8381 -0.0305,1.1583 -0.5893,1.8748 -1.2325,2.8101 -0.1814,0.2638 -0.4268,0.5582 -0.6409,0.7888 -0.1164,0.1254 -0.8137,0.9985 -0.8874,1.0353 -0.1861,0.0931 -0.4797,0.1978 -0.7395,0.0493z"/>
   <path id="_162861848" class="fil1" d="M116.397 57.8304c-0.3216,-0.2251 -0.7315,-0.4086 -0.965,-0.6755 -0.2335,-0.2669 -0.3361,-0.5525 -0.386,-0.8685 -0.0665,-0.4214 0.0664,-1.3209 0.386,-1.6405 0.1883,-0.1883 0.519,-0.5265 0.772,-0.386 0.3847,0.2136 -0.0582,1.5853 -0.0965,1.93 -0.0323,0.2906 0,0.4504 0,0.6755l0.2895 0.965z"/>
   <path id="_162861464" class="fil1" d="M113.117 58.4094c0,-1.3154 -0.4753,-2.0916 -1.544,-2.9915 -0.3082,-0.2595 -0.6663,-0.6533 -1.158,-0.772 -0.6539,-0.1578 -1.9827,-0.0062 -2.509,0.4825 -0.2374,0.2204 -0.4309,0.5589 -0.4825,0.8685 -0.0516,0.3096 -0.0401,0.6174 0.193,0.8685 0.6521,0.7025 1.4536,0.3293 2.2195,0.4825 0.8598,0.172 1.5929,0.5347 2.509,0.6755l0.772 0.386z"/>
   <path id="_162938752" class="fil1" d="M131.872 35.5c-0.4244,0.3745 -0.8731,0.7233 -1.2733,1.1235 -0.8591,0.8591 -1.6077,1.8324 -2.4717,2.6964 -0.5743,0.5743 -1.4188,1.1806 -2.0972,2.0223 -0.6784,0.8417 -1.4086,1.9936 -1.9474,2.996 -0.5388,1.0024 -0.8857,1.8956 -1.2733,2.996 -0.3876,1.1004 -0.7489,2.4337 -1.0486,3.5952 -0.2997,1.1615 -0.4869,2.2719 -0.749,3.3705 -0.2621,1.0986 -0.6116,2.4465 -0.8239,3.2207 -0.2123,0.7742 -0.271,1.0663 -0.4494,1.4231 -0.2917,0.5834 -0.7893,1.0845 -1.6706,1.2313 -0.395,0.0658 -0.9592,-0.1383 -1.2505,0.042 -0.2913,0.1803 -0.4342,0.4413 -0.3745,0.749 0.1153,0.5947 0.7817,1.2727 1.6628,1.2658 1.9091,-0.0151 2.3024,-1.2471 2.981,-2.9885 0.2894,-0.7427 0.8731,-1.8836 1.4231,-2.8462 0.55,-0.9626 1.1983,-1.9222 1.8725,-2.9211 0.6742,-0.9989 1.548,-2.1721 2.1721,-3.0709 0.6241,-0.8988 1.1356,-1.6223 1.5729,-2.3219 0.4373,-0.6996 0.7111,-1.1724 1.0486,-1.8725 0.3375,-0.7001 0.6616,-1.5354 0.9737,-2.3219 0.3121,-0.7865 0.6239,-1.5345 0.8988,-2.3968 0.6686,-2.0973 0.7732,-3.8087 0.8239,-5.992z"/>
   <path id="_162949712" class="fil1" d="M133.217 43.4263c-1.1861,1.3687 -1.9461,2.3966 -2.7094,4.0641 -0.3733,0.8155 -0.794,1.714 -1.0602,2.5916 -0.2662,0.8776 -0.4512,1.7223 -0.5301,2.6505 -0.1194,1.4053 0.1555,3.3923 1.0491,4.5347 0.7376,0.9428 1.7063,1.0663 2.8377,0.8482 0.5656,-0.109 1.1746,-0.5665 1.6262,-0.7432 0.6745,-0.2639 1.7949,-0.3429 2.4974,-0.1633 0.9598,0.2455 1.8931,0.788 2.8861,1.0602 0.6087,0.1669 1.6157,0.4797 2.1204,0.5301 0.5047,0.0504 0.7105,-0.1037 0.5885,-0.4014 -0.6752,-1.6477 -2.248,-2.2522 -3.1821,-2.9923 -1.6772,-1.329 -4.1481,-3.4511 -4.9703,-5.4401 -0.5422,-1.3114 -0.2713,-3.4225 -0.6829,-4.8771l-0.4704 -1.662z"/>
   <path id="_162949328" class="fil0" d="M102.962 26.3157c-0.07,0.1985 -0.2355,0.2834 -0.4284,0.306 -0.1929,0.0226 -0.379,-0.0035 -0.612,-0.1836 -0.233,-0.1801 -0.4444,-0.6186 -0.7344,-0.8568 -0.29,-0.2382 -0.6625,-0.3465 -0.9792,-0.5508 -0.3167,-0.2043 -0.6864,-0.3995 -0.918,-0.6732 -0.2316,-0.2737 -0.3355,-0.598 -0.4284,-0.918 -0.0929,-0.32 -0.0181,-0.6766 -0.1224,-0.9792 -0.1043,-0.3026 -0.3048,-0.5594 -0.4896,-0.7956 -0.1848,-0.2362 -0.4552,-0.3611 -0.612,-0.612 -0.1568,-0.2509 -0.2745,-0.5627 -0.306,-0.8568 -0.0315,-0.2941 0.015,-0.6205 0.1224,-0.8568 0.1074,-0.2363 0.3264,-0.3264 0.4896,-0.4896 0.1632,-0.1632 0.3115,-0.3744 0.4896,-0.4896 0.1781,-0.1152 0.3343,-0.2291 0.5508,-0.1836 0.2165,0.0455 0.4272,0.2641 0.612,0.4284 0.5318,0.4728 0.4348,0.6103 1.224,0.6732 0.2558,0.0204 0.4839,0.0727 0.7956,0 1.0503,-0.2449 2.2477,-0.8966 3.3117,-0.8024 0.4693,0.0416 0.8677,0.0568 1.3395,0.2516 0.4718,0.1948 0.8974,0.4691 1.3464,0.7344 0.449,0.2653 0.9977,0.5901 1.3464,0.8568 0.5944,0.4546 1.1713,0.945 1.7748,1.4076 0.3071,0.2354 0.6078,0.484 0.7956,0.7344 0.1878,0.2504 0.254,0.4952 0.306,0.7344 0.052,0.2392 0.0957,0.4938 0,0.6732 -0.0957,0.1794 -0.1784,0.2555 -0.4896,0.2448 -0.3112,-0.0107 -0.9077,-0.2244 -1.2852,-0.306 -0.3775,-0.0816 -0.6426,-0.1122 -0.9792,-0.1836 -0.3366,-0.0714 -0.6543,-0.2448 -1.0404,-0.2448 -0.3861,0 -0.9268,0.1174 -1.224,0.2448 -1.0842,0.4647 -1.1008,0.7578 -2.3868,0.7956 -0.3469,0.0102 -0.7108,0.0096 -0.9792,0.0612 -0.2684,0.0516 -0.4628,0.1382 -0.612,0.2448 -0.1492,0.1066 -0.2025,0.1447 -0.2448,0.3672 -0.0423,0.2225 0.1331,0.1978 0.306,0.4896 0.1729,0.2918 0.1312,0.5359 0.0612,0.7344z"/>
   <path id="_162948576" class="fil1" d="M108.525 22.5532c-0.3314,-0.7401 -0.4064,-0.993 -0.8307,-1.5553 -0.4243,-0.5623 -1.1455,-0.9333 -1.7271,-1.0865 -0.5816,-0.1532 -1.2302,-0.23 -1.7068,-0.0232 -0.4766,0.2068 -0.8428,0.4067 -0.977,0.7424 -0.1342,0.3357 -0.0641,0.6601 0.2018,0.898 0.2659,0.2379 0.7948,0.1346 1.325,0.1099 1.8396,-0.0858 2.1402,0.1552 3.7148,0.9147z"/>
   <path id="_162948192" class="fil1" d="M61.2366 21.7565c-0.2761,-0.4446 0.0735,-1.2571 0.3273,-1.5617 0.2916,-0.35 0.9108,-1.0119 1.3887,-1.0798 0.4193,-0.0597 1.5153,0.3967 1.6815,0.7849 0.1037,0.242 0.2258,0.3139 0.1492,0.5694 -0.1868,0.6225 -1.0175,0.9248 -1.7408,1.2139 -0.7063,0.2824 -1.6528,0.2164 -1.8059,0.0733z"/>
   <path id="_162950088" class="fil1" d="M65.7313 7.9221c-0.1623,0.1196 -0.2486,0.3968 -0.2972,0.598 -0.6837,2.83 -1.2865,5.9007 -1.7328,9.0783 -0.0737,0.525 0.5958,1.218 1.0456,1.4491 1.1311,0.5811 2.1764,0.077 2.4325,-1.2774 0.5842,-3.0902 0.4123,-4.5026 0.3899,-6.7678 -0.0086,-0.8667 0.0972,-1.9383 -0.3686,-2.7537 -0.158,-0.2767 -0.4759,-0.4254 -0.7974,-0.4609 -0.2129,-0.0235 -0.5097,0.0148 -0.672,0.1344z"/>
   <path id="_162948032" class="fil1" d="M145.538 110.235l-0.2836 -0.9926 -0.2127 -1.2762 -0.2836 -0.9926c-0.2127,0.1182 -0.4379,0.0542 -0.6381,0.3545 -0.2002,0.3003 -0.1956,0.878 -0.4963,1.3471 -0.3007,0.4691 -0.7288,0.9539 -1.2762,1.418 -1.3501,1.1447 -2.806,1.8285 -4.5376,2.1979 -1.6878,0.36 -3.6607,0.3989 -5.3884,0.4254 -0.7688,0.0118 -1.4024,0.0748 -1.9852,-0.0709 -1.2165,-0.3041 -1.8499,-1.0749 -2.127,-2.2688 -0.156,-0.672 -0.1655,-1.7724 -0.2127,-2.4815 -0.0948,-1.4243 0.1655,-1.9239 -1.0635,-2.9069 -0.3612,-0.2889 -0.8948,-0.2743 -1.1344,-0.5672 -0.2396,-0.2929 -0.3088,-0.5813 -0.1418,-0.9926 0.167,-0.4113 0.5079,-0.8776 1.0635,-1.2762 2.3025,-1.652 5.9391,-1.9936 8.7207,-2.4106 1.1819,-0.1772 2.5386,-0.4017 3.8286,-0.4963 1.29,-0.0946 2.7698,0.0599 3.8995,-0.0709 1.1297,-0.1308 1.9758,-0.2052 2.836,-0.709 0.8602,-0.5038 1.4291,-1.4054 2.127,-2.1979 1.3219,-1.5011 2.4278,-3.3917 4.0413,-4.6085 1.6073,-1.2122 3.2595,-1.5406 5.2466,-1.418 0.9659,0.0596 2.1244,0.3776 2.836,0.5672 0.7116,0.1896 0.9788,0.5543 1.418,0.5672 0.4392,0.0129 0.699,0.0144 0.9926,-0.4963 0.2936,-0.5107 0.37,-1.7791 0.6381,-2.3397 0.2681,-0.5606 0.3555,-0.9076 0.9217,-0.9217 0.5662,-0.0141 1.2082,0.2056 1.9143,0.8508 0.7061,0.6452 1.615,1.9314 2.1979,2.9069 1.0069,1.6851 1.6764,3.7146 1.8434,5.672 0.0832,0.9751 -0.0472,2.0325 -0.0709,3.0487 -0.3545,1.3235 -0.6692,2.9667 -1.0635,3.9704 -0.5288,1.3461 -1.8419,2.8592 -2.836,3.8995 -0.5101,0.5338 -1.0134,0.9433 -1.4889,1.2762 -1.5529,1.0872 -2.7631,1.118 -4.254,0 -0.4734,-0.355 -1.0987,-0.8741 -1.6307,-1.3471 -0.532,-0.473 -1.0399,-0.9926 -1.5598,-1.4889 -0.5199,-0.4963 -0.9624,-1.0708 -1.5598,-1.4889 -0.5974,-0.4181 -1.3694,-0.8115 -1.9852,-0.9926 -0.6158,-0.1811 -1.0592,-0.2995 -1.6307,-0.0709 -0.5715,0.2286 -1.0736,0.8491 -1.5598,1.3471 -1.3198,1.3518 -2.461,2.9333 -3.8286,4.254 -0.3441,0.3323 -0.705,0.5766 -0.9217,0.709 -0.2167,0.1324 -0.2363,0.0473 -0.3545,0.0709z"/>
   <path id="_163012432" class="fil1" d="M117.461 104.167c0.1985,-0.0397 0.7997,0.0855 1.0603,-0.1844 0.2606,-0.2699 0.2463,-0.7723 0.2305,-1.1525 -0.0447,-1.0765 -1.0387,-2.6511 -1.6135,-3.5036 -0.9372,-1.39 -2.699,-2.9287 -4.1029,-3.7802 -1.7743,-1.0761 -3.6419,-1.3519 -5.6703,-1.4291 -1.1065,-0.0421 -2.3302,-0.1049 -3.227,0.6454 -1.3892,1.1624 -3.2979,4.0524 -0.8298,5.0249 0.5124,0.2019 0.9284,0.3379 2.0284,0.5532 1.1,0.2153 3.2236,0.358 4.5639,0.7376 1.3403,0.3796 2.4279,1.0757 3.4114,1.5213 1.515,0.6864 2.6832,1.1665 4.2873,1.5674 0.3205,0.0801 -0.3368,0.0397 -0.1383,0z"/>
   <path id="_163011568" class="fil1" d="M75.1265 109.031c0.1387,-0.5719 0.2687,-1.1612 0.416,-1.716 0.32,-1.2053 0.4742,-1.5725 1.248,-2.496 0.2687,-0.3207 0.9905,-0.5643 0.832,-1.04 -0.2655,-0.7971 -2.5613,-1.145 -3.276,-1.196 -0.4919,-0.0351 -0.8113,0.0157 -1.092,0.156 -0.2807,0.1403 -0.386,0.3051 -0.468,0.624 -0.1545,0.6009 -0.0558,2.0289 0.156,2.6 0.2033,0.5482 0.6934,1.2134 1.04,1.82l0.78 1.196 0.364 0.052z"/>
   <path id="_163011184" class="fil1" d="M83.5505 103.311c0.6788,0.1129 1.4807,-0.7384 1.352,-1.404 -0.0576,-0.2979 -0.2711,-0.6898 -0.572,-0.936 -0.3009,-0.2462 -0.6825,-0.3374 -1.144,-0.468 -1.4823,-0.4195 -1.5823,-0.2564 -2.704,-1.404 -0.3727,-0.3813 -0.7343,-0.9726 -1.144,-1.196 -0.4097,-0.2234 -0.8572,-0.2355 -1.144,-0.052 -0.9437,0.6038 0.7088,3.0427 1.196,3.484 0.7666,0.6943 2.105,1.2789 3.068,1.664 0.4348,0.1739 0.7772,0.2596 1.092,0.312z"/>
   <path id="_163023536" class="fil1" d="M83.4159 98.8127c0.0001,-0.5195 0.0952,-1.0314 0,-1.5588 -0.262,-1.4519 -0.5039,-2.1885 -0.5196,-3.7671 -0.0072,-0.722 0.0014,-1.6008 -0.0866,-2.1217 -0.088,-0.5209 -0.074,-0.8053 -0.433,-0.9526 -0.359,-0.1473 -0.7861,-0.0659 -1.2557,0.2598 -0.4696,0.3257 -1.0498,1.0408 -1.4289,1.6021 -0.3791,0.5613 -0.7101,1.1913 -0.8227,1.732 -0.1126,0.5407 0.0009,0.966 0.1732,1.3856 0.4155,1.0119 1.8123,1.9323 2.598,2.6413l1.0825 0.5629 0.6928 0.2165z"/>
   <path id="_163023152" class="fil1" d="M92.558 92.3223c0.2378,-0.123 0.3814,-0.2354 0.4609,-0.7123 0.0795,-0.4769 0.1351,-1.3702 0,-2.0531 -0.1351,-0.6829 -0.2607,-1.2554 -0.7961,-1.9693 -0.5354,-0.7139 -1.506,-1.6275 -2.3464,-2.2207 -0.8404,-0.5932 -1.8192,-0.9764 -2.6397,-1.2989 -0.8205,-0.3225 -1.7063,-0.5707 -2.2626,-0.6285 -0.5563,-0.0578 -0.7435,0.1125 -0.9637,0.2933 -0.2202,0.1808 -0.1881,0.4557 -0.2095,0.6704 -0.0765,0.7683 0.5765,1.0232 1.0894,1.5084 0.5167,0.4888 1.4456,1.3758 2.095,2.0112 0.6494,0.6354 1.2845,1.2426 1.8017,1.8017 0.5172,0.5591 0.9249,1.1904 1.2989,1.5503 0.4174,0.4017 1.9487,1.3183 2.4721,1.0475z"/>
   <path id="_163022024" class="fil1" d="M74.2985 94.3653c0.5369,-0.553 1.168,-1.0858 1.6104,-1.6592 1.0206,-1.3229 1.3205,-2.3721 1.1224,-4.0504 -0.2575,-2.1819 -0.9648,-3.7773 -2.196,-5.5632 -0.5788,-0.8396 -1.3339,-1.6755 -2.0008,-2.5376 -1.4645,-1.8931 -2.8007,-3.7403 -4.636,-5.3192 -0.7608,-0.6545 -1.2823,-0.9551 -1.9032,-1.22 -1.0833,-0.4622 -2.1143,-0.5641 -2.9768,0.3416 -0.6612,0.6944 -0.9992,1.8899 -0.8784,2.8304 0.1972,1.5356 1.0697,3.1828 2.0008,4.392 0.6307,0.8191 1.6263,1.7401 2.3424,2.44 0.7161,0.6999 1.1864,1.146 1.952,1.7568 1.7754,1.4164 3.0974,2.0712 4.2456,4.148 0.3858,0.6978 0.512,1.2998 0.6832,1.9032 0.1712,0.6034 0.2278,1.1387 0.3416,1.708l-0.1464 0.7808 0.4392 0.0488z"/>
   <path id="_163035928" class="fil1" d="M57.9669 70.4111c-0.763,0 -1.3092,0.1144 -2.3653,0.1526 -1.0561,0.0382 -2.2549,-0.1027 -3.1283,0 -0.8734,0.1027 -1.3988,0.4197 -2.0601,0.6104 -0.6613,0.1907 -1.3047,0.2776 -1.9075,0.5341 -0.6028,0.2565 -1.2392,0.63 -1.6786,0.9919 -0.4394,0.3619 -0.8052,0.8291 -0.9156,1.1445 -0.1104,0.3154 -0.0768,0.2506 0.3815,0.3815 0.4583,0.1309 1.343,0.3432 2.289,0.3815 0.946,0.0383 2.3894,-0.0635 3.3572,-0.1526 0.9678,-0.0891 1.653,-0.2417 2.4416,-0.3815 0.7886,-0.1398 1.6594,-0.1229 2.289,-0.4578 0.6296,-0.3349 0.8648,-0.9664 1.2971,-1.4497l0.0763 -1.9838 -0.0763 0.2289z"/>
   <path id="_163024488" class="fil1" d="M38.8919 58.432c-0.2543,0.229 -0.4069,0.3815 -0.763,0.6867 -0.3561,0.3052 -0.7448,0.7725 -1.3734,1.1445 -0.6286,0.372 -1.5246,0.7498 -2.3653,1.0682 -0.8407,0.3184 -1.9075,0.6104 -2.6705,0.8393 -0.763,0.2289 -1.3593,0.3429 -1.9075,0.5341 -0.5482,0.1912 -1.0441,0.3734 -1.3734,0.6104 -0.3293,0.237 -0.4529,0.4787 -0.5341,0.763 -0.0812,0.2843 -0.1126,0.5922 0.0763,0.8393 0.1889,0.2471 0.327,0.4055 0.9156,0.4578 0.5886,0.0523 1.5857,0.0006 2.5179,-0.1526 0.9322,-0.1532 2.0601,-0.5214 3.052,-0.763 0.9919,-0.2416 1.9741,-0.5968 2.8994,-0.6867 0.9253,-0.0899 1.7471,-0.0142 2.5942,0.1526 0.8471,0.1668 1.4338,0.597 2.4416,0.8393 1.0078,0.2423 2.156,0.5211 3.5861,0.6104 1.4301,0.0893 3.6974,0.0911 4.9595,-0.0763 1.2621,-0.1674 1.7549,-0.6486 2.5179,-0.9156 0.763,-0.267 1.6076,-0.385 2.0601,-0.6867 0.4525,-0.3017 0.6409,-0.5924 0.4578,-0.9919 -0.1831,-0.3995 -0.5476,-0.5938 -1.2971,-0.8393 -0.7495,-0.2455 -2.0466,-0.445 -3.1283,-0.6104 -1.0817,-0.1654 -2.2509,-0.2544 -3.3572,-0.3815 -1.1063,-0.1271 -2.3752,-0.2157 -3.2809,-0.3815 -0.9057,-0.1658 -1.4365,-0.3814 -2.1364,-0.6104 -0.6999,-0.229 -1.3733,-0.5086 -2.0601,-0.763l-1.8312 -0.6867z"/>
   <path id="_163024136" class="fil1" d="M11.5002 53.9303c-0.3436,-0.0127 -1.0113,-0.2043 -1.3734,-0.1526 -0.6437,0.0919 -1.3152,0.7223 -0.9919,1.4497 0.1141,0.2567 0.378,0.4896 0.6867,0.6104 0.8671,0.3393 2.775,0.6996 3.7387,0.9156 0.7402,0.1659 1.9182,0.3687 2.8994,0.4578 0.9812,0.0891 1.9826,0.1017 2.9757,0.0763 0.9931,-0.0254 2.0424,-0.0627 2.9757,-0.2289 0.9333,-0.1662 1.7904,-0.4568 2.5942,-0.763 0.8038,-0.3062 1.27,-0.5205 2.2127,-1.0682 0.9427,-0.5477 2.5815,-1.4769 3.4335,-2.2127 0.852,-0.7358 1.2406,-1.4647 1.6023,-2.1364 0.3617,-0.6717 0.5076,-1.3008 0.5341,-1.8312 0.0265,-0.5304 -0.0187,-0.9684 -0.3815,-1.2208 -0.3628,-0.2524 -0.8896,-0.0254 -1.3734,0 -0.4838,0.0254 -1.0107,0.0109 -1.526,0.1526 -0.5153,0.1417 -0.8763,0.33 -1.526,0.6867 -0.6497,0.3567 -1.6395,0.9531 -2.3653,1.4497 -0.7258,0.4966 -1.258,1.0294 -1.9838,1.526 -0.7258,0.4966 -1.6892,1.0925 -2.3653,1.4497 -0.6761,0.3572 -1.0755,0.5328 -1.6786,0.6867 -0.6031,0.1539 -1.2334,0.1654 -1.9075,0.2289 -0.6741,0.0635 -1.4742,0.1399 -2.1364,0.1526 -0.6622,0.0127 -1.3098,-0.0509 -1.8312,-0.0763 -0.5214,-0.0254 -0.9284,-0.0509 -1.2971,-0.0763 -0.3687,-0.0254 -0.572,-0.0636 -0.9156,-0.0763z"/>
   <path id="_163023784" class="fil1" d="M59.1209 5.6913c0.6439,2.1371 0.1212,5.2194 0,7.4024 -0.0487,0.8767 -0.0974,1.8824 -0.0974,2.6298 0,0.7474 -0.0182,1.3219 0.0974,1.8506 0.1156,0.5287 0.2021,0.9749 0.5844,1.2662 0.883,0.6728 2.536,0.2702 2.8246,-0.8766 0.6671,-2.6506 0.981,-6.5106 1.2662,-9.74 0.0726,-0.8221 -0.2527,-1.6073 -0.487,-2.1428 -0.2343,-0.5355 -0.4663,-0.7518 -0.8766,-0.974 -0.4103,-0.2222 -1.0792,-0.2756 -1.461,-0.2922 -0.5335,-0.0231 -1.3569,0.2718 -1.9207,0.3468l0.0701 0.5298z"/>
   <path id="_163711056" class="fil1" d="M53.9635 8.0316c-0.0208,1.8171 -0.5605,5.5987 -0.0048,7.2049 0.1529,0.4419 0.5499,0.8905 0.8766,1.2662 0.3267,0.3757 0.6473,0.815 1.0714,0.974 0.4241,0.159 0.8952,0.4298 1.2662,-0.0974 0.371,-0.5272 0.3894,-1.2971 0.5844,-2.5324 0.195,-1.2353 0.5192,-3.7605 0.5844,-4.87 0.0656,-1.1179 0.3305,-4.4224 -0.7792,-5.1622 -0.5229,-0.3486 -1.412,-0.4382 -2.3376,-0.7792 -0.9256,-0.341 -2.0411,-0.9241 -3.2142,-1.2662 -1.1731,-0.3421 -2.4492,-0.5841 -3.7986,-0.7792 -1.3494,-0.1951 -3.0019,-0.3247 -4.2856,-0.3896 -1.2837,-0.0649 -2.3677,-0.065 -3.409,0 -1.0413,0.065 -1.9921,0.1938 -2.8246,0.3896 -0.8325,0.1958 -1.555,0.2778 -2.1428,0.7792 -0.5878,0.5014 -0.9059,1.3883 -1.1688,2.0454 -0.2629,0.6571 -0.0526,1.2439 -0.3896,1.8506 -0.9051,1.6295 -3.0204,3.2153 -4.1882,4.7726 -1.0047,1.3397 -2.1485,3.0951 -2.922,4.5778 -0.599,1.1481 -0.9701,2.4274 -1.5584,3.6038l-0.0974 0.8766c0.4546,-0.0973 0.5809,0.2573 1.3636,-0.2922 0.7827,-0.5495 2.0774,-1.8176 3.2142,-2.922 2.4893,-2.4184 4.6227,-4.6708 6.2336,-7.792 0.5252,-1.0176 0.454,-1.2054 0.487,-1.948 0.033,-0.7426 -0.3426,-1.7959 -0.2922,-2.435 0.0504,-0.6391 0.2381,-1.0161 0.5844,-1.2662 0.3463,-0.2501 0.6685,-0.3931 1.1688,0 0.5003,0.3931 1.07,1.5567 1.5584,2.1428 0.4884,0.5861 0.8246,0.9389 1.3636,1.3636 0.539,0.4247 1.2311,0.9044 1.8506,1.1688 1.6461,0.7025 3.0304,0.4105 4.2229,0.5817 0.484,0.0695 0.3229,0.6278 1.4563,0.7569 0.4035,0.0459 0.9065,-0.1056 0.959,0.3499 0.0525,0.4555 -0.0962,0.9202 -0.1124,1.7205 -0.0162,0.8003 -0.0606,2.3442 0.1948,3.0194 0.2554,0.6752 0.8618,0.7486 1.3088,0.8644 0.447,0.1158 0.9109,0.1044 1.321,-0.1826 0.4101,-0.287 0.3889,-0.283 0.487,-1.461 0.0981,-1.178 0.5005,-4.5044 0.5174,-5.6638 0.0221,-1.5106 -0.784,-0.6509 -0.6909,-2.1251 0.0438,-0.6928 1.0701,-0.9809 1.5944,-0.7189 0.2702,0.135 -0.0362,0.9505 -0.0525,2.3743z"/>
   <path id="_163710704" class="fil1" d="M33.8048 15.6384c0.3584,0.7995 0.771,1.5412 1.0751,2.3983 0.3041,0.8571 0.6466,1.8349 0.7443,2.7291 0.0977,0.8942 0.0161,1.7538 -0.1654,2.5637 -0.1815,0.8099 -0.6754,1.6402 -0.9097,2.2329 -0.2343,0.5927 -0.4533,0.8653 -0.4962,1.3232 -0.0429,0.4579 0.062,0.9365 0.2481,1.3232 0.1861,0.3867 0.653,0.4165 0.827,0.9097 0.174,0.4932 0.2213,1.2721 0.1654,1.9021 -0.0559,0.63 -0.1288,1.1836 -0.4962,1.8194 -0.3674,0.6358 -1.1436,1.2676 -1.654,1.9021 -0.5104,0.6345 -1.07,1.2441 -1.4059,1.9021 -0.3359,0.658 -0.4135,1.3506 -0.5789,1.9848 -0.6965,2.6706 -1.8144,3.4829 -4.7139,4.2177 -1.6409,0.4159 -4.6923,0.8556 -6.2852,0.1654 -1.7377,-0.753 -2.3911,-2.6474 -2.481,-4.3831 -0.1455,-2.808 0.3775,-6.2888 1.7367,-8.7662 1.6707,-3.045 4.6072,-5.3818 7.1949,-7.6084 1.1854,-1.02 2.5752,-2.0516 3.5561,-2.9772 0.9809,-0.9256 1.5438,-1.7091 2.3156,-2.5637l1.0751 -0.9097 0.2481 -0.1654z"/>
   <path id="_163024832" class="fil1" d="M164.999 76.0509c0.6585,0.0469 1.547,0.051 2.754,0.204 1.418,0.1797 3.1302,0.7774 4.488,0.816 0.6142,0.0175 1.1704,-0.0099 1.428,-0.408 0.5335,-0.8245 -1.0018,-2.135 -1.53,-2.55 -0.9729,-0.7645 -2.2671,-1.5491 -3.57,-1.326 -1.1436,0.1957 -2.799,1.3765 -3.366,2.448 -0.1562,0.2952 -0.8625,0.7691 -0.204,0.816z"/>
   <path id="_27690512" class="fil1" d="M150.176 89.9241c-0.3891,0.5089 -0.6209,1.0408 -1.1674,1.5266 -0.5465,0.4858 -1.3315,0.9127 -2.0654,1.347 -0.7339,0.4343 -1.3743,0.9828 -2.3348,1.2572 -0.9605,0.2744 -2.3463,0.179 -3.3226,0.3592 -0.9763,0.1802 -1.7001,0.3716 -2.5144,0.7184 -0.8143,0.3468 -1.7117,0.8455 -2.3348,1.347 -1.8419,1.4825 -1.6735,2.0376 -4.49,2.4246 -2.6312,0.3615 -5.3558,0.0308 -7.9922,0.449 -2.8312,0.449 -2.9609,1.832 -4.2206,-1.347 -0.3149,-0.7947 -0.5366,-1.8958 -0.898,-2.694 -0.3614,-0.7982 -0.7853,-1.5174 -1.2572,-2.0654 -0.4719,-0.548 -0.8874,-0.9336 -1.5266,-1.1674 -0.6392,-0.2338 -1.3468,-0.1347 -2.1552,-0.1796 -0.8084,-0.0449 -1.8989,-0.0148 -2.694,-0.0898 -0.7951,-0.075 -1.5771,-0.1545 -2.0654,-0.3592 -0.4883,-0.2047 -0.5486,-0.4684 -0.7184,-0.8082 -0.1698,-0.3398 -0.3376,-0.8263 -0.2694,-1.1674 0.0682,-0.3411 0.117,-0.4426 0.6286,-0.6286 0.5116,-0.186 1.5757,-0.1606 2.3348,-0.449 0.7591,-0.2884 1.4808,-0.5981 2.1552,-1.2572 0.6744,-0.6591 1.3439,-1.7754 1.796,-2.6042 0.4521,-0.8288 0.5958,-1.7454 0.898,-2.3348 0.3022,-0.5894 0.5149,-0.9509 0.898,-1.1674 0.3831,-0.2165 0.832,-0.5217 1.1674,0 0.3354,0.5217 0.149,1.4044 0.449,2.5144 0.3,1.11 0.9117,3.0348 1.347,4.1308 0.4353,1.096 0.6126,1.6879 1.2572,2.4246 0.6446,0.7367 1.5004,1.3562 2.5144,1.8858 1.014,0.5296 2.0277,0.9262 3.5022,1.2572 1.4745,0.331 3.6388,0.6883 5.2982,0.7184 1.6594,0.0301 2.873,-0.2843 4.5798,-0.5388 1.7068,-0.2545 4.0935,-0.5818 5.6574,-0.9878 1.5639,-0.406 2.6789,-1.0626 3.6818,-1.4368 1.0029,-0.3742 1.5566,-0.5387 2.3348,-0.8082l1.5266 -0.2694z"/>
   <path id="_27690464" class="fil1" d="M75.9637 66.1617c0.2105,1.158 0.4869,2.2996 1.2472,3.7416 0.7603,1.442 1.9168,3.2147 3.2739,4.8329 2.6186,3.1224 6.02,6.2859 9.5099,8.4186 1.8792,1.1484 4.4522,2.5143 6.5478,3.2739 3.5719,1.2947 8.1483,1.8712 11.8484,0.7795 2.9648,-0.8748 6.711,-5.0123 7.0155,-8.2627 0.0821,-0.8763 -0.0562,-1.645 -0.6236,-2.1826 -0.9999,-0.9474 -3.3499,-0.2858 -4.3652,-1.4031 -0.3605,-0.3967 -0.0373,-0.6549 0.4677,-0.9354 1.5194,-0.8439 4.2839,-0.2213 5.4565,-1.2472 1.0374,-0.9077 0.7606,-4.453 0.3118,-5.6124 -0.4038,-1.0432 -2.1593,-2.6685 -3.118,-3.2739 -0.486,-0.3069 -2.4981,-0.5071 -2.1826,-1.559 0.128,-0.4267 0.7671,-0.4144 1.2472,-0.4677 0.8532,-0.0947 1.595,0.1499 2.4944,0 -0.3637,-0.4676 -0.4545,-0.9256 -1.0913,-1.4031 -2.2858,-1.7144 -4.4638,-2.4471 -7.1991,-2.9105 -2.4207,-0.4101 -5.861,-0.5808 -8.1432,-1.5351 -3.2874,-1.3746 -5.9668,-2.7398 -8.9781,-4.5966 -6.2772,-3.8706 -11.0632,-6.9451 -18.7558,-6.808 -2.371,0.0422 -5.3797,0.8918 -7.5913,1.8192 -0.8134,0.341 -1.5503,0.8502 -2.0267,1.2472 -0.4764,0.397 -0.6914,0.7387 -0.7795,1.0913 -0.0881,0.3526 -0.1057,0.5012 0.3118,0.7795 0.4175,0.2783 1.5871,0.3691 2.0267,0.7795 0.4396,0.4104 0.4066,1.0238 0.3118,1.4031 -0.0948,0.3793 -0.1702,0.5231 -0.7795,0.4677 -0.6093,-0.0554 -1.8192,-0.2701 -2.6503,-0.7795 -0.8311,-0.5094 -1.4551,-1.4551 -2.1826,-2.1826 -0.7275,-0.7275 -1.4012,-1.5054 -2.1826,-2.1826 -1.5341,-1.3295 -3.6781,-3.1416 -5.4565,-4.0534 -2.3826,-1.2216 -6.1928,-1.5694 -8.7304,-0.9354 -0.8424,0.2105 -2.0254,0.4948 -2.6503,1.0913 -0.6249,0.5965 -0.7519,1.4928 -0.7795,2.1826 -0.0276,0.6898 0.2822,1.1108 0.6236,1.7149 1.085,1.9199 2.8982,3.2721 4.677,4.5211 2.6427,1.8555 4.8605,2.8942 7.9509,3.7416 3.5776,0.981 6.1832,1.3168 9.8217,1.4031 1.0918,0.0259 1.7639,0.0516 2.4944,0.1559 0.7305,0.1043 1.4497,0.1368 1.8708,0.4677 0.4211,0.3309 0.5216,0.9113 0.3118,1.2472 -0.2098,0.3359 -0.5855,0.1597 -1.0913,0 -0.5058,-0.1597 -1.1891,-0.8264 -1.8708,-0.9354 -0.6817,-0.109 -1.4646,0.0976 -2.0267,0.3118 -0.5621,0.2142 -1.0373,0.5157 -1.2472,0.9354 -0.2099,0.4197 -0.118,0.7816 0.1559,1.2472 0.2739,0.4656 0.7978,0.9821 1.4031,1.4031 0.6053,0.421 1.2203,0.6752 2.1826,1.0913 1.4974,0.6474 4.6373,2.3385 6.236,2.3385 0.7282,0 0.9668,-0.1502 1.2472,-0.9354 0.2804,-0.7852 0.3643,-2.3781 0.3118,-3.4298 -0.0525,-1.0517 -0.3895,-1.9477 -0.6236,-2.8062 -0.2341,-0.8585 -0.4059,-1.698 -0.7795,-2.3385 -0.3736,-0.6405 -0.9874,-0.9874 -1.4031,-1.4031 -0.4157,-0.4157 -0.7006,-0.7527 -1.0913,-1.0913 -0.3907,-0.3386 -0.9539,-0.6154 -1.2472,-0.9354 -0.2933,-0.32 -0.6188,-0.5953 -0.4677,-0.9354 0.1511,-0.3401 0.4302,-0.5503 1.0913,-0.4677 0.6611,0.0826 1.6267,0.3581 2.6503,0.9354 6.7374,3.7997 5.8507,7.7787 7.0155,14.1869z"/>
  </g>
 </g>
</svg>